<svg width="299" height="218" viewBox="0 0 299 218" fill="none" xmlns="http://www.w3.org/2000/svg">
<g filter="url(#filter0_d_19_156)">
<path d="M108.915 164.238H31.8419C25.9368 164.238 20.2768 161.898 16.1026 157.722C12.5258 154.151 10.5192 149.311 10.5192 144.256V90.9865C10.5192 85.8171 14.7163 81.6265 19.8938 81.6265H24.5582C29.8199 81.6265 34.0554 77.3059 33.9405 72.0523L33.7337 62.1953C33.7337 58.6241 32.3091 55.1982 29.7816 52.6747L28.3034 51.1988C25.9904 48.8894 24.6884 45.7541 24.6884 42.4888V23.0271C24.6884 16.2212 30.2105 10.7076 37.0271 10.7076H254C258.963 10.7076 263.727 12.6806 267.242 16.1829C271.485 20.4194 273.867 26.1547 273.867 32.1423V72.06C273.867 78.0935 276.663 83.7906 281.434 87.4994L283.104 88.7918C286.26 91.9423 288.037 96.2247 288.037 100.683V146.856C288.037 156.453 280.247 164.23 270.635 164.23H193.233C192.406 164.23 125.772 164.062 108.938 164.23L108.915 164.238Z" fill="#FFE202"/>
<g filter="url(#filter1_d_19_156)">
<path d="M81.7022 27.6229L79.0063 24.9312H38.9189V41.7012L42.6871 45.4559H51.2806V38.3288H53.3868V66.4317H47.9642V75.3253L51.7324 79.08H73.7292V70.1864L69.9609 66.4317H68.3066V38.3288H70.4128V41.6935L74.1811 45.4482H82.7745V28.6782L81.7099 27.6153L81.7022 27.6229ZM77.9417 40.6688H71.4774V33.5188H63.4737V67.51H68.8963V74.27H49.0365V67.51H54.4591V33.5188H46.4554V40.6688H39.9912V26.0017H77.9417V40.6688Z" fill="#212121"/>
<path d="M77.9417 25.9941V40.6612H71.4774V33.5112H63.4737V67.5024H68.8963V74.2624H49.0365V67.5024H54.4591V33.5112H46.4477V40.6612H39.9911V25.9941H77.9417Z" fill="white"/>
<path d="M109.543 35.4152C107.804 33.6488 105.752 32.754 103.393 32.754H97.2425V49.7535H103.393C105.92 49.7535 108.003 48.9658 109.658 47.4288C111.312 45.884 112.132 43.8958 112.132 41.4793C112.132 39.2388 111.289 37.2199 109.551 35.4229L109.543 35.4152ZM108.953 46.7176C107.521 48.0329 105.667 48.7058 103.393 48.7058H102.045V37.5717H107.184C108.164 37.5717 109.236 37.824 110.332 38.3288C110.837 39.4223 111.09 40.4623 111.09 41.4717C111.09 43.6282 110.362 45.3717 108.953 46.7176ZM109.543 35.4152C107.804 33.6488 105.752 32.754 103.393 32.754H97.2425V49.7535H103.393C105.92 49.7535 108.003 48.9658 109.658 47.4288C111.312 45.884 112.132 43.8958 112.132 41.4793C112.132 39.2388 111.289 37.2199 109.551 35.4229L109.543 35.4152ZM108.953 46.7176C107.521 48.0329 105.667 48.7058 103.393 48.7058H102.045V37.5717H107.184C108.164 37.5717 109.236 37.824 110.332 38.3288C110.837 39.4223 111.09 40.4623 111.09 41.4717C111.09 43.6282 110.362 45.3717 108.953 46.7176ZM124.938 39.147C124.041 37.2964 122.747 35.5299 121.116 33.8705L118.251 31.0411C116.229 29.0223 114.008 27.5082 111.534 26.4682C109.06 25.4588 106.364 24.9235 103.385 24.9235H81.6946V33.817L82.7592 34.8799L85.4552 37.5717H87.1095V66.4317H81.687V75.3252L85.4552 79.0799H107.452V70.1864L103.691 66.4317H102.037V62.0805H108.754C113.472 62.0805 117.516 60.597 120.863 57.6452C124.486 54.4793 126.316 50.2658 126.316 44.997C126.316 42.9476 125.841 40.9899 124.938 39.1317V39.147ZM116.428 53.2023C113.365 55.9246 109.543 57.2705 104.993 57.2705H97.2425V67.5099H102.665V74.2699H82.7745V67.5099H88.1971V32.7617H82.7745V26.0017H103.393C108.363 26.0017 112.637 27.4623 116.176 30.4064C119.714 33.3199 121.483 36.9446 121.483 41.2576C121.483 46.2817 119.798 50.2582 116.428 53.2023ZM103.393 32.754H97.2425V49.7535H103.393C105.92 49.7535 108.003 48.9658 109.658 47.4288C111.312 45.884 112.132 43.8958 112.132 41.4793C112.132 39.2388 111.289 37.2199 109.551 35.4229C107.812 33.6564 105.759 32.7617 103.4 32.7617L103.393 32.754ZM111.09 41.4793C111.09 43.6358 110.362 45.3793 108.953 46.7252C107.521 48.0405 105.667 48.7135 103.393 48.7135H102.045V37.5793H107.184C108.164 37.5793 109.236 37.8317 110.332 38.3364C110.837 39.4299 111.09 40.4699 111.09 41.4793Z" fill="#212121"/>
<path d="M116.176 30.3988C112.637 27.4547 108.363 25.9941 103.393 25.9941H82.7745V32.7541H88.1971V67.5024H82.7745V74.2624H102.665V67.5024H97.2425V57.263H104.993C109.543 57.263 113.365 55.9171 116.428 53.1947C119.798 50.2506 121.483 46.2665 121.483 41.25C121.483 36.9294 119.714 33.3124 116.176 30.3988ZM109.658 47.4212C108.003 48.9659 105.92 49.7459 103.393 49.7459H97.2425V32.7465H103.393C105.752 32.7465 107.804 33.6412 109.543 35.4077C111.281 37.2047 112.124 39.2236 112.124 41.4641C112.124 43.873 111.312 45.8689 109.65 47.4136L109.658 47.4212Z" fill="white"/>
<path d="M173.457 36.2335L168.709 31.5459C163.593 26.5523 157.442 24.0288 150.251 24.0288C148.144 24.0288 145.977 24.3347 143.786 24.9235C141.565 25.5429 139.597 26.3229 137.889 27.2482L135.561 24.9235H126.99V41.5559L130.751 45.3106H140.386C141.649 43.2612 143.534 41.6094 146.061 40.3476C148.619 39.0859 151.254 38.4665 154.011 38.4665C157.243 38.4665 160.108 39.3382 162.666 41.1047C163.478 42.3129 164.098 43.6282 164.489 45.0888H143.25V54.7088L147.011 58.4635H163.133C161.816 60.6812 160.046 62.417 157.764 63.6559C155.52 64.9176 152.985 65.537 150.235 65.537C146.467 65.537 143.212 64.6423 140.462 62.8453L140.24 62.4553L136.449 58.7006H125.244C126.454 62.4323 128.361 65.5141 130.973 68.0376L135.415 72.3888C137.858 74.7441 140.753 76.5947 144.039 77.9712C147.325 79.317 150.641 79.99 154.011 79.99C161.456 79.99 167.751 77.4665 172.914 72.3888C178.084 67.3418 180.665 61.2241 180.665 54.0435C180.665 46.8629 178.275 41.0282 173.442 36.2335H173.457ZM168.402 67.9535C163.432 72.7788 157.389 75.1647 150.258 75.1647C145.035 75.1647 140.171 73.6812 135.652 70.7065C131.126 67.7317 128.154 64.0841 126.691 59.7712H135.875C136.916 61.8206 138.793 63.4723 141.496 64.7341C144.162 65.9653 147.118 66.6153 150.258 66.6153C154.019 66.6153 157.335 65.4682 160.2 63.1359C163.064 60.8341 165.033 57.6912 166.074 53.6841H144.3V46.1365H165.844C164.803 42.2976 162.842 39.2388 160.001 37.0212C157.167 34.7806 153.935 33.6565 150.251 33.6565C147.386 33.6565 144.606 34.3294 141.849 35.6217C139.122 36.937 137.154 38.5659 136.005 40.5006H128.024V26.0018H134.511V31.3317C136.817 29.1753 139.313 27.6 142.04 26.5906C144.736 25.6118 147.493 25.107 150.243 25.107C157.266 25.107 163.309 27.5465 168.334 32.4559C173.335 37.3959 175.862 43.307 175.862 50.2965C175.862 57.2859 173.366 63.1435 168.387 67.9688L168.402 67.9535Z" fill="#212121"/>
<path d="M175.87 50.2812C175.87 57.24 173.373 63.1282 168.395 67.9535C163.424 72.7788 157.381 75.1647 150.251 75.1647C145.027 75.1647 140.164 73.6812 135.645 70.7065C131.118 67.7318 128.147 64.0841 126.684 59.7712H135.867C136.909 61.8206 138.785 63.4724 141.489 64.7341C144.154 65.9653 147.11 66.6153 150.251 66.6153C154.011 66.6153 157.328 65.4682 160.192 63.1359C163.057 60.8341 165.025 57.6912 166.067 53.6841H144.292V46.1365H165.837C164.795 42.2976 162.834 39.2388 159.993 37.0212C157.159 34.7806 153.927 33.6565 150.243 33.6565C147.378 33.6565 144.598 34.3294 141.841 35.6218C139.114 36.9371 137.146 38.5659 135.997 40.5006H128.016V26.0018H134.504V31.3318C136.809 29.1753 139.306 27.6 142.032 26.5906C144.728 25.6118 147.486 25.1071 150.235 25.1071C157.259 25.1071 163.302 27.5465 168.326 32.4559C173.327 37.3959 175.855 43.3071 175.855 50.2965L175.87 50.2812Z" fill="white"/>
<path d="M259.614 37.5794V28.6859L255.846 24.9312H233.849V33.8247L237.61 37.5794H239.264V66.4394H227.071V37.5794H232.493V28.6859L228.733 24.9312H206.736V33.8247L210.504 37.5794H212.159V66.4394H199.965V37.5794H205.388V28.6859L201.627 24.9312H179.631V33.8247L183.391 37.5794H185.046V66.4394H179.623V75.3329L183.384 79.0876H259.599V70.1941L255.83 66.4394H254.176V37.5794H259.599H259.614ZM254.812 67.51V74.27H180.68V67.51H186.103V32.7617H180.68V26.0017H200.57V32.7617H195.148V67.51H213.238V32.7617H207.816V26.0017H227.676V32.7617H222.253V67.51H240.344V32.7617H234.921V26.0017H254.812V32.7617H249.389V67.51H254.812Z" fill="#212121"/>
<path d="M249.389 32.7541V67.5024H254.812V74.2624H180.672V67.5024H186.095V32.7541H180.672V25.9941H200.563V32.7541H195.14V67.5024H213.231V32.7541H207.808V25.9941H227.668V32.7541H222.253V67.5024H240.344V32.7541H234.921V25.9941H254.812V32.7541H249.389Z" fill="white"/>
</g>
<g filter="url(#filter2_d_19_156)">
<path d="M77.0379 140.088L74.2883 137.366L69.5091 137.397L55.516 124.267L73.1011 108.476L76.586 108.506V99.6126L72.8254 95.8579H50.8823V104.721L52.9885 106.824L45.1227 114.31L45.0921 108.506H50.5147V99.6126L46.7541 95.8579H24.7573V104.751L28.5256 108.506H30.1799V137.366H24.7573V146.26L28.5256 150.014H50.5223V141.121L46.7617 137.366H45.1074L45.138 127.884L55.1943 137.366H50.8976V146.26L54.6888 150.014H78.0872V141.121L77.0455 140.081L77.0379 140.088ZM73.2696 145.197H51.9469V138.437L58.0741 138.406L40.2669 121.743V138.429H45.6895V145.189H25.8296V138.429H31.2522V103.681H25.8296V96.9209H45.6895V103.681H40.2669V120.176L57.9669 103.681H51.9545V96.9209H71.7608V103.681H68.9806L50.0781 120.68L69.1261 138.437H73.285V145.197H73.2696Z" fill="#212121"/>
<path d="M73.2696 138.429V145.189H51.9469V138.429L58.0741 138.398L40.2668 121.743V138.429H45.6818V145.189H25.8219V138.429H31.2445V103.681H25.8219V96.9205H45.6818V103.681H40.2668V120.168L57.9592 103.681H51.9469V96.9205H71.7531V103.681H68.9729L50.0704 120.672L69.1108 138.429H73.2696Z" fill="white"/>
<path d="M104.878 106.342C103.14 104.575 101.087 103.681 98.7283 103.681H92.5474V120.68H98.7283C101.225 120.68 103.339 119.892 104.993 118.355C106.648 116.811 107.467 114.822 107.467 112.406C107.467 110.165 106.594 108.146 104.886 106.349L104.878 106.342ZM104.258 117.644C102.826 118.959 100.972 119.632 98.7206 119.632H97.3726V108.498H102.489C103.5 108.498 104.541 108.751 105.66 109.255C106.165 110.349 106.418 111.389 106.418 112.398C106.418 114.555 105.69 116.298 104.258 117.644ZM104.878 106.342C103.14 104.575 101.087 103.681 98.7283 103.681H92.5474V120.68H98.7283C101.225 120.68 103.339 119.892 104.993 118.355C106.648 116.811 107.467 114.822 107.467 112.406C107.467 110.165 106.594 108.146 104.886 106.349L104.878 106.342ZM104.258 117.644C102.826 118.959 100.972 119.632 98.7206 119.632H97.3726V108.498H102.489C103.5 108.498 104.541 108.751 105.66 109.255C106.165 110.349 106.418 111.389 106.418 112.398C106.418 114.555 105.69 116.298 104.258 117.644ZM120.273 110.074C119.377 108.223 118.083 106.456 116.428 104.797L113.564 101.968C111.572 99.9488 109.321 98.4347 106.877 97.3947C104.404 96.3853 101.685 95.85 98.7283 95.85H77.0379V104.744L80.7985 108.498H82.4528V137.358H77.0302V146.252L80.7908 150.006H102.788V141.113L99.027 137.358H97.3726V133.007H104.059C108.777 133.007 112.821 131.524 116.199 128.572C119.821 125.406 121.621 121.192 121.621 115.923C121.621 113.874 121.169 111.916 120.273 110.058V110.074ZM111.764 124.129C108.7 126.851 104.878 128.197 100.306 128.197H92.5551V138.436H97.9777V145.196H78.0872V138.436H83.5098V103.688H78.0872V96.9282H98.7359C103.707 96.9282 107.95 98.3888 111.488 101.333C115.027 104.246 116.827 107.871 116.827 112.184C116.827 117.208 115.142 121.185 111.772 124.129H111.764ZM98.7283 103.681H92.5474V120.68H98.7283C101.225 120.68 103.339 119.892 104.993 118.355C106.648 116.811 107.467 114.822 107.467 112.406C107.467 110.165 106.594 108.146 104.886 106.349C103.148 104.583 101.095 103.688 98.7359 103.688L98.7283 103.681ZM106.426 112.406C106.426 114.562 105.698 116.306 104.266 117.652C102.833 118.967 100.98 119.64 98.7283 119.64H97.3803V108.506H102.497C103.507 108.506 104.549 108.758 105.667 109.263C106.173 110.356 106.426 111.396 106.426 112.406Z" fill="#212121"/>
<path d="M111.481 101.325C107.942 98.3811 103.699 96.9205 98.7283 96.9205H78.0795V103.681H83.5021V138.429H78.0795V145.189H97.97V138.429H92.5474V128.189H100.298C104.878 128.189 108.7 126.843 111.756 124.121C115.126 121.177 116.811 117.193 116.811 112.176C116.811 107.856 115.011 104.239 111.473 101.325H111.481ZM104.993 118.348C103.339 119.892 101.233 120.672 98.7283 120.672H92.5474V103.673H98.7283C101.087 103.673 103.14 104.568 104.878 106.334C106.594 108.131 107.46 110.15 107.46 112.391C107.46 114.799 106.648 116.795 104.986 118.34L104.993 118.348Z" fill="white"/>
<path d="M273.775 108.506V99.6124L270.007 95.8577H248.01V104.751L251.771 108.506H253.425V137.366H241.232V108.506H246.655V99.6124L242.894 95.8577H220.897V104.751L224.666 108.506H226.32V137.366H214.104V108.506H219.527V99.6124L215.766 95.8577H193.769V104.751L197.56 108.506H199.215V137.366H193.762V146.259L194.826 147.322L197.553 150.014H273.768V141.121L270 137.366H268.345V108.506H273.768H273.775ZM268.943 138.436V145.196H194.834V138.436H200.256V103.688H194.834V96.9282H214.724V103.688H209.302V138.436H227.362V103.688H221.939V96.9282H241.83V103.688H236.407V138.436H254.498V103.688H249.044V96.9282H268.935V103.688H263.512V138.436H268.935H268.943Z" fill="#212121"/>
<path d="M263.52 103.681V138.429H268.943V145.189H194.841V138.429H200.256V103.681H194.841V96.9205H214.724V103.681H209.302V138.429H227.369V103.681H221.947V96.9205H241.837V103.681H236.415V138.429H254.505V103.681H249.052V96.9205H268.943V103.681H263.52Z" fill="white"/>
</g>
<g filter="url(#filter3_d_19_156)">
<path d="M133.018 149.548L137.046 153.593C137.935 154.48 139.137 154.985 140.393 154.985H178.229C178.229 154.985 180.059 154.878 181.07 153.096C182.112 151.261 188.952 139.262 191.448 134.491C192.528 132.418 192.865 130.958 189.756 125.306C186.646 119.655 177.685 102.755 172.983 94.8253C171.895 92.99 170.363 91.667 165.293 91.0935L186.853 131.042L176.651 149.571L133.018 149.532V149.548Z" fill="#212121"/>
<path d="M141.902 114.203L147.853 131.133L143.771 129.382L138.685 126.996L141.902 114.203Z" fill="#212121"/>
<path d="M176.215 115.388L178.987 97.6547L175.288 100.125L170.723 103.39L176.215 115.388Z" fill="#212121"/>
<path d="M164.45 131.516L166.373 135.324H164.083L164.205 131.998L164.45 131.516Z" fill="#212121"/>
<path d="M141.42 135.622L158.04 105.822L156.041 97.2953L134.427 135.638L141.42 135.622Z" fill="#212121"/>
<path d="M154.968 100.255L151.507 94.4429C150.442 92.6382 148.435 91.4605 146.344 91.3917H146.161C143.985 91.3917 141.91 92.5694 140.761 94.4735L128.162 116.573L141.152 124.366L154.961 100.255H154.968Z" fill="white"/>
<path d="M141.343 125.062L127.48 116.742L140.324 94.2135C141.565 92.1488 143.794 90.8794 146.153 90.8794H146.344C148.627 90.9559 150.81 92.2482 151.951 94.1829L155.558 100.247L141.343 125.062ZM128.859 116.382L140.975 123.655L154.379 100.255L151.07 94.6953C150.105 93.0512 148.244 91.95 146.329 91.8888H146.168C146.168 91.8888 146.161 91.8888 146.153 91.8888C144.139 91.8888 142.247 92.9747 141.198 94.7182L128.851 116.375L128.859 116.382Z" fill="#212121"/>
<path d="M137.72 114.769C137.72 114.769 123.559 117.208 123.574 117.216L126.86 118.982L122.9 126.301C121.828 128.281 121.874 130.614 123.03 132.541L129.395 143.178L129.556 143.43L130.429 144.906C130.597 144.156 130.866 143.422 131.233 142.749L140.194 126.155L143.457 127.929L137.728 114.776L137.72 114.769Z" fill="white"/>
<path d="M131.624 147.904L122.594 132.801C121.345 130.728 121.292 128.205 122.448 126.064L126.163 119.189L123.015 117.491L123.069 117.139C123.104 116.89 127.96 115.931 137.636 114.264L138.034 114.195L141.06 121.139C143.082 125.778 143.975 128.179 143.74 128.342L143.488 128.518L140.401 126.844L131.685 142.986C131.34 143.606 131.088 144.286 130.927 145.013L131.624 147.904ZM125.106 117.461L127.549 118.776L123.344 126.538C122.356 128.365 122.402 130.506 123.467 132.273L130.276 143.636C130.421 143.239 130.597 142.864 130.797 142.497L139.995 125.452L142.4 126.759C141.305 124.244 138.923 118.776 137.414 115.327C133.699 115.969 127.802 116.986 125.106 117.453V117.461Z" fill="#212121"/>
<path d="M135.139 135.546L131.93 141.503C130.927 143.338 130.95 145.671 131.968 147.491L132.068 147.644C133.186 149.509 135.262 150.679 137.491 150.679H165.4V135.546H135.139Z" fill="white"/>
<path d="M137.491 151.184C135.086 151.184 132.842 149.93 131.631 147.903L131.54 147.758C130.429 145.77 130.414 143.223 131.486 141.258L134.841 135.041H165.913V151.192H137.491V151.184ZM135.446 136.051L132.382 141.74C131.471 143.415 131.486 145.571 132.413 147.238L132.497 147.376C133.531 149.104 135.446 150.175 137.491 150.175H164.895V136.058H135.446V136.051Z" fill="#212121"/>
<path d="M154.999 143.063C154.999 143.063 163.807 154.403 163.807 154.388L163.83 150.664L172.163 150.718C174.422 150.733 176.46 149.593 177.616 147.674L184.035 137.075L184.18 136.815L185.076 135.355C184.333 135.561 183.567 135.668 182.794 135.66L163.914 135.553L163.953 131.845L155.007 143.07L154.999 143.063Z" fill="white"/>
<path d="M163.868 154.885C163.531 154.885 162.781 153.914 154.593 143.369L154.348 143.055L159.066 137.129C162.217 133.173 163.914 131.256 164.159 131.378L164.45 131.516L164.412 135.033L182.786 135.141C183.521 135.141 184.218 135.056 184.931 134.858L187.075 133.03L178.045 147.934C176.797 150.006 174.568 151.268 172.155 151.222L164.336 151.169L164.313 154.748L163.968 154.862C163.968 154.862 163.907 154.885 163.876 154.885H163.868ZM155.643 143.063C157.948 146.038 161.624 150.756 163.302 152.92L163.317 150.152L172.155 150.213H172.194C174.254 150.213 176.115 149.165 177.172 147.414L184.027 136.081C183.606 136.135 183.184 136.158 182.778 136.158L163.386 136.043L163.416 133.305C161.708 135.454 157.994 140.119 155.643 143.063Z" fill="#212121"/>
<path d="M174.583 135.584L181.354 135.615C183.452 135.638 185.497 134.521 186.631 132.77L186.723 132.609C187.849 130.751 187.902 128.365 186.861 126.4L174.131 102.671L160.751 109.775L174.583 135.569V135.584Z" fill="white"/>
<path d="M181.408 136.127H181.346L174.269 136.096L160.054 109.584L174.331 102.006L187.305 126.178C188.431 128.296 188.377 130.874 187.152 132.885L187.068 133.03C185.834 134.926 183.621 136.127 181.4 136.127H181.408ZM174.89 135.079L181.354 135.11H181.4C183.292 135.11 185.168 134.093 186.202 132.502L186.279 132.365C187.32 130.644 187.366 128.457 186.409 126.645L173.917 103.367L161.433 109.997L174.882 135.079H174.89Z" fill="#212121"/>
<path d="M171.474 113.171C171.474 113.171 176.674 99.7959 176.659 99.8035L173.45 101.7L169.207 94.5423C168.058 92.6076 166.036 91.4453 163.784 91.4453L151.376 91.4147H151.078H149.362C149.921 91.9423 150.411 92.5464 150.802 93.2117L160.429 109.431L157.228 111.305L171.474 113.178V113.171Z" fill="white"/>
<path d="M171.803 113.721L164.282 112.735C159.252 112.077 156.73 111.605 156.715 111.32L156.699 111.014L159.732 109.24L150.365 93.4641C150.005 92.8523 149.554 92.2865 149.017 91.7741L146.352 90.8794L151.085 90.91H151.369L163.792 90.9329C166.212 90.9329 168.402 92.187 169.651 94.2823L173.634 101.004L176.72 99.1765L176.996 99.4135C177.185 99.5715 175.505 104.218 171.956 113.354L171.811 113.729L171.803 113.721ZM158.76 110.984C161.486 111.343 167.407 112.115 171.144 112.605C172.508 109.102 174.675 103.528 175.663 100.974L173.274 102.388L168.77 94.7947C167.713 93.0129 165.844 91.9423 163.784 91.9423L151.376 91.9117H151.093H150.534C150.802 92.2406 151.032 92.5847 151.246 92.9441L161.134 109.599L158.767 110.984H158.76Z" fill="#212121"/>
</g>
<path d="M58.549 189.649V203.628C58.549 205.952 56.6649 207.833 54.3365 207.833H36.5599L30.402 201.693L47.1983 178.323L58.549 189.649Z" fill="#CC2752"/>
<path d="M58.549 172.543V189.657L47.1983 178.331L30.402 201.701L36.5599 207.841H23.1949C20.8665 207.841 18.9824 205.96 18.9824 203.636V172.55C18.9824 170.226 20.8665 168.344 23.1949 168.344H54.3289C56.6572 168.344 58.5413 170.226 58.5413 172.55L58.549 172.543Z" fill="#FF335F"/>
<path d="M33.0444 181.092H31.0531C30.425 181.092 29.9119 180.579 29.9119 179.952C29.9119 179.639 30.0421 179.356 30.2489 179.149C30.4557 178.943 30.739 178.813 31.0531 178.813H33.0444C33.0444 178.813 31.9645 179.899 33.0444 181.084V181.092Z" fill="white"/>
<path d="M47.6195 179.952C47.6195 180.266 47.497 180.549 47.2825 180.755C47.0757 180.962 46.7924 181.092 46.4783 181.092H43.5449C44.6248 179.906 43.5449 178.821 43.5449 178.821H46.4783C47.1064 178.821 47.6195 179.333 47.6195 179.96V179.952Z" fill="#5F9298"/>
<path d="M43.5526 181.092H33.0444C31.9645 179.906 33.0444 178.821 33.0444 178.821H43.5526C43.5526 178.821 44.6325 179.906 43.5526 181.092Z" fill="#A4D1D0"/>
<path d="M33.0444 201.693H31.0531C30.425 201.693 29.9119 201.181 29.9119 200.553C29.9119 200.248 30.0421 199.957 30.2489 199.751C30.4557 199.544 30.739 199.414 31.0531 199.414H33.0444C33.0444 199.414 31.9875 200.584 33.0444 201.685V201.693Z" fill="white"/>
<path d="M47.6195 200.553C47.6195 200.859 47.497 201.15 47.2825 201.356C47.0757 201.563 46.7924 201.693 46.4783 201.693H43.5449C44.6019 200.592 43.5449 199.422 43.5449 199.422H46.4783C47.1064 199.422 47.6195 199.934 47.6195 200.561V200.553Z" fill="#5F9298"/>
<path d="M43.5526 201.693H33.0444C31.9875 200.592 33.0444 199.422 33.0444 199.422H43.5526C43.5526 199.422 44.6095 200.592 43.5526 201.693Z" fill="#A4D1D0"/>
<path d="M33.0444 196.86H31.2982V199.422H33.0444V196.86Z" fill="white"/>
<path d="M46.2486 196.86H43.5526V199.422H46.2486V196.86Z" fill="#5F9298"/>
<path d="M43.5526 196.86H33.0444V199.422H43.5526V196.86Z" fill="#A4D1D0"/>
<path d="M33.0444 187.393H31.2982V193.12H33.0444V187.393Z" fill="white"/>
<path d="M46.2486 187.393H43.5526V193.12H46.2486V187.393Z" fill="#5F9298"/>
<path d="M43.5526 187.393H33.0444V193.12H43.5526V187.393Z" fill="#A4D1D0"/>
<path d="M33.0444 181.092H31.2982V183.661H33.0444V181.092Z" fill="white"/>
<path d="M46.2486 181.092H43.5526V183.661H46.2486V181.092Z" fill="#5F9298"/>
<path d="M43.5526 181.092H33.0444V183.661H43.5526V181.092Z" fill="#A4D1D0"/>
<path d="M33.0444 196.86H30.6548C30.2488 196.86 29.9195 196.523 29.9195 196.126V195.72C29.9195 195.323 30.2488 194.994 30.6548 194.994H32.9678C32.9678 194.994 33.0214 195.055 33.052 195.078C33.052 195.078 31.9798 195.973 33.052 196.86H33.0444Z" fill="white"/>
<path d="M47.6196 195.713V196.118C47.6196 196.516 47.2902 196.852 46.892 196.852H43.5526C44.6249 195.965 43.5526 195.071 43.5526 195.071C43.5832 195.04 43.6139 195.009 43.6369 194.986H46.8996C47.2979 194.986 47.6272 195.315 47.6272 195.713H47.6196Z" fill="#5F9298"/>
<path d="M43.5526 196.86H33.0444C31.9722 195.973 33.0444 195.078 33.0444 195.078C33.0138 195.048 32.9832 195.017 32.9602 194.994H43.6369C43.6369 194.994 43.5833 195.055 43.5526 195.078C43.5526 195.078 44.6249 195.973 43.5526 196.86Z" fill="#A4D1D0"/>
<path d="M32.9602 194.986H30.6471C30.2412 194.986 29.9119 194.658 29.9119 194.26V193.855C29.9119 193.457 30.2412 193.128 30.6471 193.128H33.0367C33.0367 193.128 32.0334 193.969 32.9525 194.994L32.9602 194.986Z" fill="white"/>
<path d="M47.6195 193.847V194.252C47.6195 194.65 47.2902 194.979 46.8919 194.979H43.6292C44.5483 193.954 43.5449 193.113 43.5449 193.113H46.8843C47.2825 193.113 47.6119 193.442 47.6119 193.839L47.6195 193.847Z" fill="#5F9298"/>
<path d="M43.6292 194.986H32.9525C32.0334 193.962 33.0367 193.12 33.0367 193.12H43.5449C43.5449 193.12 44.5483 193.962 43.6292 194.986Z" fill="#A4D1D0"/>
<path d="M33.0444 187.393H30.6548C30.2488 187.393 29.9195 187.064 29.9195 186.666V186.261C29.9195 185.864 30.2488 185.535 30.6548 185.535H33.0444C33.0444 185.535 31.9721 186.506 33.0444 187.401V187.393Z" fill="white"/>
<path d="M47.6196 186.253V186.659C47.6196 187.056 47.2902 187.385 46.892 187.385H43.5526C44.6249 186.49 43.5526 185.519 43.5526 185.519H46.892C47.2902 185.519 47.6196 185.848 47.6196 186.246V186.253Z" fill="#5F9298"/>
<path d="M43.5526 187.393H33.0444C31.9722 186.498 33.0444 185.527 33.0444 185.527H43.5526C43.5526 185.527 44.6249 186.498 43.5526 187.393Z" fill="#A4D1D0"/>
<path d="M33.0444 185.527H30.6548C30.2488 185.527 29.9195 185.198 29.9195 184.8V184.395C29.9195 183.998 30.2488 183.669 30.6548 183.669H33.0444C33.0444 183.669 31.9721 184.556 33.0444 185.535V185.527Z" fill="white"/>
<path d="M47.6196 184.388V184.793C47.6196 185.191 47.2902 185.519 46.892 185.519H43.5526C44.6249 184.541 43.5526 183.653 43.5526 183.653H46.892C47.2902 183.653 47.6196 183.982 47.6196 184.38V184.388Z" fill="#5F9298"/>
<path d="M43.5526 185.527H33.0444C31.9722 184.548 33.0444 183.661 33.0444 183.661H43.5526C43.5526 183.661 44.6249 184.548 43.5526 185.527Z" fill="#A4D1D0"/>
<path d="M35.771 178.82H32.5542C30.9305 177.482 30.088 176.144 30.5093 175.288C30.7007 174.898 31.1297 174.653 31.7347 174.546C31.7347 174.546 30.9152 176.19 35.771 178.82Z" fill="white"/>
<path d="M42.7331 178.821H35.771C30.9075 176.19 31.7347 174.546 31.7347 174.546C33.2665 174.263 35.9318 174.852 38.6891 176.198C40.3128 176.993 41.7144 177.911 42.7407 178.821H42.7331Z" fill="#A4D1D0"/>
<path d="M42.151 188.341H35.3881C34.9905 188.341 34.6682 188.663 34.6682 189.06V191.446C34.6682 191.843 34.9905 192.165 35.3881 192.165H42.151C42.5486 192.165 42.871 191.843 42.871 191.446V189.06C42.871 188.663 42.5486 188.341 42.151 188.341Z" fill="#FFE202"/>
<path d="M38.7734 191.713C39.5813 191.713 40.2362 191.059 40.2362 190.253C40.2362 189.446 39.5813 188.792 38.7734 188.792C37.9654 188.792 37.3105 189.446 37.3105 190.253C37.3105 191.059 37.9654 191.713 38.7734 191.713Z" fill="#FFA605"/>
<path d="M46.486 181.52H31.053C30.1875 181.52 29.4829 180.816 29.4829 179.952C29.4829 179.539 29.6438 179.149 29.9425 178.851C30.2412 178.553 30.6394 178.385 31.053 178.385H46.486C47.3514 178.385 48.0561 179.088 48.0561 179.952C48.0561 180.373 47.8952 180.763 47.5965 181.061C47.3055 181.359 46.9149 181.52 46.486 181.52ZM31.053 179.249C30.8692 179.249 30.6854 179.325 30.5552 179.455C30.425 179.593 30.3484 179.769 30.3484 179.952C30.3484 180.342 30.6624 180.656 31.053 180.656H46.486C46.6774 180.656 46.8536 180.587 46.9838 180.449C47.0834 180.35 47.1983 180.189 47.1983 179.952C47.1983 179.562 46.8842 179.249 46.4936 179.249H31.0607H31.053Z" fill="#212121"/>
<path d="M46.6085 202.121H30.9305C30.1339 202.121 29.4829 201.471 29.4829 200.676V200.431C29.4829 199.636 30.1339 198.986 30.9305 198.986H46.6085C47.405 198.986 48.0561 199.636 48.0561 200.431V200.676C48.0561 201.471 47.405 202.121 46.6085 202.121ZM30.9305 199.85C30.6088 199.85 30.3484 200.11 30.3484 200.431V200.676C30.3484 200.997 30.6088 201.257 30.9305 201.257H46.6085C46.9302 201.257 47.1906 200.997 47.1906 200.676V200.431C47.1906 200.11 46.9302 199.85 46.6085 199.85H30.9305Z" fill="#212121"/>
<path d="M46.6774 199.85H30.8692V196.424H46.6774V199.85ZM31.7347 198.986H45.812V197.288H31.7347V198.986Z" fill="#212121"/>
<path d="M46.6774 193.549H30.8692V186.957H46.6774V193.549ZM31.7347 192.685H45.812V187.821H31.7347V192.685Z" fill="#212121"/>
<path d="M46.6774 184.089H30.8692V180.656H46.6774V184.089ZM31.7347 183.225H45.812V181.52H31.7347V183.225Z" fill="#212121"/>
<path d="M46.8919 197.288H30.6471C30.0038 197.288 29.4753 196.768 29.4753 196.118V195.713C29.4753 195.071 29.9961 194.551 30.6471 194.551H46.8919C47.5353 194.551 48.0561 195.071 48.0561 195.713V196.118C48.0561 196.761 47.5353 197.288 46.8919 197.288ZM30.6471 195.415C30.4786 195.415 30.3407 195.552 30.3407 195.713V196.118C30.3407 196.279 30.4786 196.424 30.6471 196.424H46.8919C47.0528 196.424 47.1906 196.286 47.1906 196.118V195.713C47.1906 195.552 47.0528 195.415 46.8919 195.415H30.6471Z" fill="#212121"/>
<path d="M46.8919 195.415H30.6471C30.0038 195.415 29.4753 194.895 29.4753 194.252V193.847C29.4753 193.205 29.9961 192.685 30.6471 192.685H46.8919C47.5353 192.685 48.0561 193.205 48.0561 193.847V194.252C48.0561 194.895 47.5353 195.415 46.8919 195.415ZM30.6471 193.549C30.4786 193.549 30.3407 193.686 30.3407 193.847V194.252C30.3407 194.421 30.4786 194.551 30.6471 194.551H46.8919C47.0528 194.551 47.1906 194.413 47.1906 194.252V193.847C47.1906 193.686 47.0528 193.549 46.8919 193.549H30.6471Z" fill="#212121"/>
<path d="M46.8919 187.821H30.6471C30.0038 187.821 29.4753 187.301 29.4753 186.659V186.254C29.4753 185.611 29.9961 185.091 30.6471 185.091H46.8919C47.5353 185.091 48.0561 185.611 48.0561 186.254V186.659C48.0561 187.301 47.5353 187.821 46.8919 187.821ZM30.6471 185.955C30.4786 185.955 30.3407 186.093 30.3407 186.254V186.659C30.3407 186.827 30.4786 186.957 30.6471 186.957H46.8919C47.0528 186.957 47.1906 186.819 47.1906 186.659V186.254C47.1906 186.093 47.0528 185.955 46.8919 185.955H30.6471Z" fill="#212121"/>
<path d="M46.8919 185.955H30.6471C30.0038 185.955 29.4753 185.435 29.4753 184.793V184.388C29.4753 183.745 29.9961 183.225 30.6471 183.225H46.8919C47.5353 183.225 48.0561 183.745 48.0561 184.388V184.793C48.0561 185.435 47.5353 185.955 46.8919 185.955ZM30.6471 184.089C30.4786 184.089 30.3407 184.227 30.3407 184.388V184.793C30.3407 184.961 30.4786 185.091 30.6471 185.091H46.8919C47.0528 185.091 47.1906 184.954 47.1906 184.793V184.388C47.1906 184.227 47.0528 184.089 46.8919 184.089H30.6471Z" fill="#212121"/>
<path d="M43.8743 179.249H32.401L32.2785 179.149C30.402 177.605 29.6131 176.121 30.1186 175.096C30.5322 174.248 31.6887 173.896 33.4503 174.095C35.0434 174.271 36.9658 174.875 38.8729 175.808C40.4966 176.595 41.9289 177.528 43.0164 178.499L43.8666 179.256L43.8743 179.249ZM32.715 178.385H41.5153C40.6421 177.742 39.6158 177.123 38.4976 176.58C36.6824 175.693 34.8519 175.119 33.3584 174.951C32.0487 174.806 31.1296 175.005 30.8999 175.479C30.6624 175.968 31.1373 177.046 32.715 178.385Z" fill="#212121"/>
<path d="M23.6851 175.8C24.7383 175.8 25.5922 174.948 25.5922 173.896C25.5922 172.844 24.7383 171.992 23.6851 171.992C22.6318 171.992 21.778 172.844 21.778 173.896C21.778 174.948 22.6318 175.8 23.6851 175.8Z" fill="white"/>
<path d="M54.0914 178.553C55.1447 178.553 55.9985 177.7 55.9985 176.649C55.9985 175.597 55.1447 174.745 54.0914 174.745C53.0382 174.745 52.1843 175.597 52.1843 176.649C52.1843 177.7 53.0382 178.553 54.0914 178.553Z" fill="white"/>
<path d="M26.787 202.756C27.0015 202.97 27.0015 203.314 26.787 203.528C26.6798 203.635 26.5419 203.689 26.4041 203.689C26.2662 203.689 26.1283 203.635 26.0211 203.528L24.9488 202.458L23.8766 203.528C23.6698 203.735 23.3175 203.735 23.1107 203.528C22.8962 203.314 22.8962 202.97 23.1107 202.756L24.1829 201.693L23.1107 200.622C22.8962 200.408 22.8962 200.064 23.1107 199.858C23.3251 199.643 23.6698 199.643 23.8766 199.858L24.9488 200.928L26.0211 199.858C26.2356 199.643 26.5802 199.643 26.787 199.858C26.8942 199.965 26.9478 200.102 26.9478 200.24C26.9478 200.378 26.8942 200.523 26.787 200.622L25.7147 201.693L26.787 202.756Z" fill="white"/>
<path d="M191.15 183.638V203.628C191.15 205.952 189.266 207.834 186.937 207.834H174.338L165.852 199.361L184.555 177.062L191.15 183.646V183.638Z" fill="#FFA605"/>
<path d="M191.15 172.542V183.646L184.555 177.062L165.852 199.361L174.338 207.833H155.803C153.475 207.833 151.591 205.952 151.591 203.628V172.542C151.591 170.218 153.475 168.336 155.803 168.336H186.937C189.266 168.336 191.15 170.218 191.15 172.542Z" fill="#FEDD00"/>
<path d="M166.572 198.863L170.187 195.675L167.192 193.556L166.572 198.863Z" fill="#A4D1D0"/>
<path d="M166.151 198.496L164.014 190.987L182.518 178.606L167.009 193.426L166.151 198.496Z" fill="#A4D1D0"/>
<path d="M166.817 195.59L168.724 194.359L167.123 193.358L166.817 195.59Z" fill="#5F9298"/>
<path d="M164.014 191.132L164.42 192.669L180.588 180.763L180.098 179.968L164.014 191.132Z" fill="white"/>
<path d="M164.014 190.987L158.178 187.752L183.644 177.352L164.014 190.987Z" fill="white"/>
<path d="M167.384 193.426L175.342 198.894L184.042 177.819L167.384 193.426Z" fill="white"/>
<path d="M166.235 199.536C165.982 199.536 165.768 199.376 165.707 199.131L163.708 191.66C163.669 191.507 163.57 191.377 163.432 191.308L158.101 188.341C157.871 188.211 157.734 187.966 157.749 187.706C157.764 187.446 157.933 187.217 158.178 187.118L184.18 176.679C184.402 176.588 184.655 176.641 184.824 176.809C184.992 176.978 185.038 177.23 184.946 177.452L176.138 198.596C176.023 198.871 175.794 199.078 175.502 199.162C175.211 199.246 174.905 199.192 174.66 199.024L167.353 193.931L166.794 199.055C166.764 199.322 166.557 199.521 166.289 199.544C166.273 199.544 166.258 199.544 166.243 199.544L166.235 199.536ZM167.192 192.914C167.33 192.914 167.46 192.952 167.583 193.036L175.15 198.305C175.196 198.336 175.234 198.328 175.257 198.321C175.28 198.321 175.319 198.298 175.342 198.252L183.897 177.712L158.859 187.768L163.853 190.543C164.19 190.735 164.443 191.056 164.542 191.431L166.105 197.288L166.511 193.518C166.534 193.281 166.687 193.075 166.901 192.975C166.993 192.937 167.085 192.914 167.185 192.914H167.192Z" fill="#212121"/>
<path d="M167.307 193.74L166.718 193.113L180.06 180.663L164.259 191.484L163.769 190.773L184.31 176.702L184.847 177.375L167.307 193.74Z" fill="#212121"/>
<path d="M170.211 195.262L166.034 198.75L166.59 199.413L170.767 195.925L170.211 195.262Z" fill="#212121"/>
<path d="M185.949 195.224C187.003 195.224 187.856 194.371 187.856 193.319C187.856 192.268 187.003 191.415 185.949 191.415C184.896 191.415 184.042 192.268 184.042 193.319C184.042 194.371 184.896 195.224 185.949 195.224Z" fill="white"/>
<path d="M158.737 202.358C158.737 202.656 158.492 202.901 158.193 202.901C158.04 202.901 157.91 202.84 157.81 202.741C157.711 202.641 157.649 202.511 157.649 202.358V200.852H156.14C155.842 200.852 155.597 200.607 155.597 200.309C155.597 200.011 155.842 199.766 156.14 199.766H157.649V198.259C157.649 197.961 157.894 197.716 158.193 197.716C158.492 197.716 158.737 197.961 158.737 198.259V199.766H160.246C160.544 199.766 160.789 200.011 160.789 200.309C160.789 200.462 160.728 200.592 160.629 200.691C160.529 200.791 160.391 200.852 160.238 200.852H158.729V202.358H158.737Z" fill="white"/>
<path d="M165.73 176.748C165.944 176.962 165.944 177.306 165.73 177.521C165.622 177.628 165.484 177.681 165.347 177.681C165.209 177.681 165.071 177.628 164.964 177.521L163.891 176.45L162.819 177.521C162.612 177.727 162.26 177.727 162.053 177.521C161.839 177.306 161.839 176.962 162.053 176.748L163.125 175.685L162.053 174.615C161.839 174.401 161.839 174.056 162.053 173.85C162.268 173.636 162.612 173.636 162.819 173.85L163.891 174.921L164.964 173.85C165.178 173.636 165.523 173.636 165.73 173.85C165.837 173.957 165.89 174.095 165.89 174.232C165.89 174.37 165.837 174.515 165.73 174.615L164.657 175.685L165.73 176.748Z" fill="white"/>
<path d="M102.749 190.039V203.628C102.749 205.952 100.865 207.833 98.5445 207.833H81.8018L75.8354 201.876L86.0603 173.376L102.757 190.046L102.749 190.039Z" fill="#00A872"/>
<path d="M102.749 172.542V190.046L86.0526 173.376L75.8278 201.876L81.7942 207.833H67.4028C65.0745 207.833 63.1904 205.952 63.1904 203.628V172.542C63.1904 170.218 65.0745 168.336 67.4028 168.336H98.5368C100.858 168.336 102.742 170.218 102.742 172.542H102.749Z" fill="#6FC629"/>
<path d="M86.6653 175.135V176.006C86.6653 176.802 86.0143 177.459 85.2101 177.459H80.5917C79.7952 177.459 79.1365 176.809 79.1365 176.006V175.135H86.6576H86.6653Z" fill="#FFA605"/>
<path d="M86.6653 174.263V175.135H79.1441V174.263C79.1441 173.468 79.7951 172.81 80.5993 172.81H85.2177C86.0143 172.81 86.6729 173.46 86.6729 174.263H86.6653Z" fill="#FFE202"/>
<path d="M88.5417 185.435H77.5204C76.2429 185.435 75.2073 186.469 75.2073 187.745V188.18C75.2073 189.456 76.2429 190.49 77.5204 190.49H88.5417C89.8192 190.49 90.8547 189.456 90.8547 188.18V187.745C90.8547 186.469 89.8192 185.435 88.5417 185.435Z" fill="#B1F2EF"/>
<path d="M85.4705 177.459C87.2014 178.782 90.8548 180.113 90.8548 182.904C90.8548 184.296 89.7136 185.435 88.3196 185.435H83.0272H77.7349C76.3409 185.435 75.1997 184.296 75.1997 182.904C75.1997 180.113 78.8607 178.775 80.584 177.459H85.4628H85.4705Z" fill="#B1F2EF"/>
<path d="M88.4115 190.49H77.3902C76.1127 190.49 75.0771 191.524 75.0771 192.799V193.235C75.0771 194.511 76.1127 195.545 77.3902 195.545H88.4115C89.689 195.545 90.7246 194.511 90.7246 193.235V192.799C90.7246 191.524 89.689 190.49 88.4115 190.49Z" fill="#B1F2EF"/>
<path d="M88.4115 195.545H77.3902C76.1127 195.545 75.0771 196.579 75.0771 197.854V199.322C75.0771 200.598 76.1127 201.632 77.3902 201.632H88.4115C89.689 201.632 90.7246 200.598 90.7246 199.322V197.854C90.7246 196.579 89.689 195.545 88.4115 195.545Z" fill="#B1F2EF"/>
<path d="M79.0522 190.49H77.7348C76.3409 190.49 75.2073 189.35 75.2073 187.966C75.2073 187.27 75.4907 186.636 75.9503 186.177C76.4098 185.718 77.0455 185.435 77.7425 185.435H79.3202C79.3202 185.435 77.1987 185.902 77.2063 188.31C77.2063 190.245 79.0598 190.49 79.0598 190.49H79.0522Z" fill="white"/>
<path d="M78.8837 195.545H77.6123C76.2184 195.545 75.0848 194.405 75.0848 193.021C75.0848 192.325 75.3682 191.691 75.8278 191.239C76.2873 190.781 76.923 190.498 77.6123 190.498H79.7569C79.7569 190.498 77.2064 191.086 77.2064 193.021C77.2064 194.841 78.4778 195.353 78.8837 195.545Z" fill="white"/>
<path d="M82.2843 201.632H77.6123C76.2184 201.632 75.0848 200.492 75.0848 199.108V198.076C75.0848 196.684 76.226 195.552 77.6123 195.552H79.1671C79.1671 195.552 77.2064 196.003 77.2064 198.512C77.2064 201.173 82.2843 201.632 82.2843 201.632Z" fill="white"/>
<path d="M81.4342 177.459V178.216C81.4342 178.553 81.2503 178.859 80.9516 179.004C79.5654 179.708 75.8201 181.986 77.7425 185.435C76.3486 185.435 75.215 184.296 75.215 182.912C75.215 181.528 76.1265 180.48 77.26 179.631C78.3935 178.782 79.7415 178.117 80.5993 177.459H81.4418H81.4342Z" fill="white"/>
<path d="M86.7495 190.49H88.0669C89.4608 190.49 90.5943 189.35 90.5943 187.966C90.5943 187.27 90.311 186.636 89.8514 186.177C89.3919 185.718 88.7562 185.435 88.0592 185.435H86.4814C86.4814 185.435 88.603 185.902 88.5953 188.31C88.5953 190.245 86.7418 190.49 86.7418 190.49H86.7495Z" fill="#5CC1C6"/>
<path d="M86.9181 195.545H88.1894C89.5834 195.545 90.7169 194.405 90.7169 193.021C90.7169 192.325 90.4335 191.691 89.974 191.239C89.5145 190.781 88.8788 190.498 88.1894 190.498H86.0449C86.0449 190.498 88.5954 191.086 88.5954 193.021C88.5954 194.841 87.324 195.353 86.9181 195.545Z" fill="#5CC1C6"/>
<path d="M83.5251 201.632H88.1971C89.591 201.632 90.7246 200.492 90.7246 199.108V198.076C90.7246 196.684 89.5834 195.552 88.1971 195.552H86.6423C86.6423 195.552 88.603 196.003 88.603 198.512C88.603 201.173 83.5251 201.632 83.5251 201.632Z" fill="#5CC1C6"/>
<path d="M84.3676 177.459V178.216C84.3676 178.553 84.5514 178.859 84.8501 179.004C86.2364 179.708 89.9817 181.986 88.0592 185.435C89.4532 185.435 90.5867 184.296 90.5867 182.912C90.5867 181.512 89.6753 180.48 88.5418 179.631C87.4082 178.782 86.0602 178.117 85.2024 177.459H84.3599H84.3676Z" fill="#5CC1C6"/>
<path d="M86.6653 174.706H79.1441V175.571H86.6653V174.706Z" fill="#212121"/>
<path d="M81.549 175.571C81.3116 175.571 81.1201 175.379 81.1201 175.142V174.102C81.1201 173.865 81.3116 173.674 81.549 173.674C81.7865 173.674 81.9779 173.865 81.9779 174.102V175.142C81.9779 175.379 81.7865 175.571 81.549 175.571Z" fill="#212121"/>
<path d="M84.2526 175.571C84.0152 175.571 83.8237 175.379 83.8237 175.142V174.102C83.8237 173.865 84.0152 173.674 84.2526 173.674C84.4901 173.674 84.6815 173.865 84.6815 174.102V175.142C84.6815 175.379 84.4901 175.571 84.2526 175.571Z" fill="#212121"/>
<path d="M85.3326 177.888H80.4691C79.4964 177.888 78.7075 177.1 78.7075 176.129V174.133C78.7075 173.162 79.4964 172.374 80.4691 172.374H85.3326C86.3053 172.374 87.0942 173.162 87.0942 174.133V176.129C87.0942 177.1 86.3053 177.888 85.3326 177.888ZM80.4691 173.246C79.9789 173.246 79.573 173.643 79.573 174.14V176.136C79.573 176.626 79.9713 177.031 80.4691 177.031H85.3326C85.8228 177.031 86.2287 176.633 86.2287 176.136V174.14C86.2287 173.651 85.8304 173.246 85.3326 173.246H80.4691Z" fill="#212121"/>
<path d="M88.5341 190.918H77.5204C76.0039 190.918 74.7708 189.687 74.7708 188.173V187.737C74.7708 186.223 76.0039 184.992 77.5204 184.992H88.5341C90.0506 184.992 91.2837 186.223 91.2837 187.737V188.173C91.2837 189.687 90.0506 190.918 88.5341 190.918ZM77.5204 185.863C76.4864 185.863 75.6363 186.705 75.6363 187.745V188.181C75.6363 189.213 76.4788 190.062 77.5204 190.062H88.5341C89.5681 190.062 90.4182 189.221 90.4182 188.181V187.745C90.4182 186.712 89.5757 185.863 88.5341 185.863H77.5204Z" fill="#212121"/>
<path d="M88.3273 185.863H77.7349C76.1035 185.863 74.7708 184.533 74.7708 182.904C74.7708 180.533 77.0455 179.165 78.8684 178.056C79.4122 177.727 79.933 177.413 80.3236 177.115L80.4385 177.023H85.6083L85.7232 177.115C86.1215 177.413 86.6347 177.727 87.1784 178.056C89.0013 179.157 91.276 180.533 91.276 182.904C91.276 184.533 89.9434 185.863 88.312 185.863H88.3273ZM80.7372 177.888C80.3313 178.186 79.8334 178.484 79.3203 178.798C77.597 179.845 75.6363 181.023 75.6363 182.904C75.6363 184.059 76.5783 184.999 77.7349 184.999H88.3273C89.4838 184.999 90.4259 184.059 90.4259 182.904C90.4259 181.023 88.4728 179.838 86.7419 178.798C86.2287 178.484 85.7385 178.186 85.325 177.888H80.7372Z" fill="#212121"/>
<path d="M88.4115 195.973H77.3979C75.8814 195.973 74.6483 194.742 74.6483 193.228V192.792C74.6483 191.278 75.8814 190.046 77.3979 190.046H88.4115C89.928 190.046 91.1611 191.278 91.1611 192.792V193.228C91.1611 194.742 89.928 195.973 88.4115 195.973ZM77.3979 190.918C76.3639 190.918 75.5137 191.759 75.5137 192.799V193.235C75.5137 194.268 76.3562 195.116 77.3979 195.116H88.4115C89.4455 195.116 90.2957 194.275 90.2957 193.235V192.799C90.2957 191.767 89.4532 190.918 88.4115 190.918H77.3979Z" fill="#212121"/>
<path d="M88.4115 202.06H77.3979C75.8814 202.06 74.6483 200.829 74.6483 199.315V197.854C74.6483 196.34 75.8814 195.109 77.3979 195.109H88.4115C89.928 195.109 91.1611 196.34 91.1611 197.854V199.315C91.1611 200.829 89.928 202.06 88.4115 202.06ZM77.3979 195.973C76.3639 195.973 75.5137 196.814 75.5137 197.854V199.315C75.5137 200.347 76.3562 201.196 77.3979 201.196H88.4115C89.4455 201.196 90.2957 200.355 90.2957 199.315V197.854C90.2957 196.822 89.4532 195.973 88.4115 195.973H77.3979Z" fill="#212121"/>
<path d="M82.3992 188.395H78.1101C77.8727 188.395 77.6812 188.203 77.6812 187.966C77.6812 187.729 77.8727 187.538 78.1101 187.538H82.3992C82.6366 187.538 82.8281 187.729 82.8281 187.966C82.8281 188.203 82.6366 188.395 82.3992 188.395Z" fill="white"/>
<path d="M83.0732 183.141H77.4438C77.2064 183.141 77.0149 182.95 77.0149 182.713C77.0149 182.476 77.2064 182.285 77.4438 182.285H83.0732C83.3106 182.285 83.5021 182.476 83.5021 182.713C83.5021 182.95 83.3106 183.141 83.0732 183.141Z" fill="white"/>
<path d="M82.3992 193.449H79.4045C79.1671 193.449 78.9756 193.258 78.9756 193.021C78.9756 192.784 79.1671 192.593 79.4045 192.593H82.3992C82.6366 192.593 82.8281 192.784 82.8281 193.021C82.8281 193.258 82.6366 193.449 82.3992 193.449Z" fill="white"/>
<path d="M82.3992 199.016H76.7698C76.5324 199.016 76.3409 198.825 76.3409 198.588C76.3409 198.351 76.5324 198.16 76.7698 198.16H82.3992C82.6366 198.16 82.8281 198.351 82.8281 198.588C82.8281 198.825 82.6366 199.016 82.3992 199.016Z" fill="white"/>
<path d="M89.1851 188.999H85.593C85.3556 188.999 85.1641 188.808 85.1641 188.57C85.1641 188.333 85.3556 188.142 85.593 188.142H89.1851C89.4225 188.142 89.614 188.333 89.614 188.57C89.614 188.808 89.4225 188.999 89.1851 188.999Z" fill="#212121"/>
<path d="M88.9171 200.385H86.2058C85.9683 200.385 85.7769 200.194 85.7769 199.957C85.7769 199.72 85.9683 199.529 86.2058 199.529H88.9171C89.1545 199.529 89.346 199.72 89.346 199.957C89.346 200.194 89.1545 200.385 88.9171 200.385Z" fill="#212121"/>
<path d="M70.1754 196.11C71.2287 196.11 72.0825 195.258 72.0825 194.206C72.0825 193.155 71.2287 192.302 70.1754 192.302C69.1221 192.302 68.2683 193.155 68.2683 194.206C68.2683 195.258 69.1221 196.11 70.1754 196.11Z" fill="white"/>
<path d="M71.577 176.198C71.7914 176.412 71.7914 176.756 71.577 176.97C71.4698 177.077 71.3319 177.131 71.194 177.131C71.0562 177.131 70.9183 177.077 70.8111 176.97L69.7388 175.899L68.6666 176.97C68.4598 177.176 68.1074 177.176 67.9006 176.97C67.6862 176.756 67.6862 176.412 67.9006 176.198L68.9729 175.135L67.9006 174.064C67.6862 173.85 67.6862 173.506 67.9006 173.299C68.1151 173.085 68.4598 173.085 68.6666 173.299L69.7388 174.37L70.8111 173.299C71.0255 173.085 71.3702 173.085 71.577 173.299C71.6842 173.406 71.7378 173.544 71.7378 173.682C71.7378 173.819 71.6842 173.965 71.577 174.064L70.5047 175.135L71.577 176.198Z" fill="white"/>
<path d="M97.7939 200.186C97.7939 200.485 97.5488 200.729 97.2501 200.729C97.0969 200.729 96.9667 200.668 96.8671 200.569C96.7676 200.469 96.7063 200.339 96.7063 200.186V198.68H95.1975C94.8988 198.68 94.6537 198.435 94.6537 198.137C94.6537 197.839 94.8988 197.594 95.1975 197.594H96.7063V196.088C96.7063 195.789 96.9514 195.545 97.2501 195.545C97.5488 195.545 97.7939 195.789 97.7939 196.088V197.594H99.3027C99.6014 197.594 99.8465 197.839 99.8465 198.137C99.8465 198.29 99.7852 198.42 99.6857 198.519C99.5861 198.619 99.4482 198.68 99.2951 198.68H97.7862V200.186H97.7939Z" fill="white"/>
<path d="M146.95 194.665V203.628C146.95 205.952 145.065 207.833 142.737 207.833H125.451L114.736 197.135L130.575 178.323L146.942 194.665H146.95Z" fill="#3CA8C6"/>
<path d="M146.95 172.542V194.665L130.582 178.323L124.6 190.1L114.743 197.135L125.458 207.833H111.603C109.275 207.833 107.391 205.952 107.391 203.628V172.542C107.391 170.218 109.275 168.336 111.603 168.336H142.737C145.065 168.336 146.95 170.218 146.95 172.542Z" fill="#76D3F4"/>
<path d="M130.957 180.197C130.391 180.969 129.579 182.705 129.533 182.805C128.882 183.975 128.92 185.955 129.035 187.011C129.227 188.777 129.778 191.805 128.376 194.092C127.733 195.147 126.668 196.049 124.953 196.592C124.478 196.745 124.018 196.845 123.566 196.906C123.544 196.906 123.521 196.906 123.49 196.906C123.459 196.906 123.429 196.906 123.383 196.906C123.344 196.906 123.291 196.906 123.237 196.913C123.23 196.913 123.214 196.913 123.199 196.913C123.145 196.913 123.092 196.913 123.03 196.921C122.877 196.929 122.693 196.944 122.479 196.959H122.464C118.42 196.959 115.785 193.824 115.785 193.824C115.785 193.824 117.669 193.954 119.814 193.113C120.235 192.952 120.671 192.746 121.108 192.493C123.191 191.285 123.766 189.496 124.179 187.446C124.286 186.926 124.378 186.391 124.486 185.848C124.838 184.036 126.316 183.179 127.258 182.812C127.718 182.629 128.047 182.568 128.047 182.568L128.92 180.266L130.827 179.937C131.026 179.937 130.988 180.151 130.973 180.174L130.957 180.197Z" fill="#FFE202"/>
<path d="M122.471 197.41L122.441 196.546L123.528 196.47L123.62 197.326C123.245 197.38 122.862 197.403 122.471 197.403V197.41Z" fill="#212121"/>
<path d="M124.164 187.469C123.75 189.511 123.184 191.301 121.093 192.516C120.656 192.769 120.227 192.975 119.798 193.136C116.015 191.943 116.252 189.335 116.252 188.991C116.252 188.647 116.765 187.706 117.508 188.219C118.259 188.723 119.538 189.274 119.538 189.274C122.349 190.062 124.064 187.615 124.149 187.477L124.164 187.469Z" fill="#FFE202"/>
<path d="M124.164 187.898V187.469L123.735 187.462H124.164V187.033V187.462H124.601L124.164 187.898Z" fill="#212121"/>
<path d="M142.997 196.317C142.676 196.585 142.163 196.822 141.397 196.975C138.41 197.563 131.716 198.122 128.376 194.092C129.786 191.805 129.227 188.777 129.035 187.01C128.92 185.955 128.882 183.975 129.533 182.812C130.146 183.187 131.769 184.372 132.16 186.636C132.642 189.442 133.385 191.048 134.488 191.874C135.499 192.639 138.754 193.694 142.377 194.275C143.357 194.436 143.756 195.69 142.99 196.325L142.997 196.317Z" fill="#FFE202"/>
<path d="M122.456 196.975C120.457 197.105 116.298 197.334 114.736 197.135C113.526 196.975 112.56 196.523 111.634 195.399C110.148 193.602 111.473 191.178 111.741 190.857C112.009 190.536 112.997 190.215 113.503 191.102C114.016 191.981 115.777 193.847 115.777 193.847C115.777 193.847 118.412 196.975 122.456 196.982V196.975Z" fill="#FFF88E"/>
<path d="M128.912 180.296L128.039 182.598C128.039 182.598 127.71 182.659 127.25 182.843L127.924 179.547C127.924 179.547 127.947 179.478 127.978 179.463C128.001 179.455 128.024 179.44 128.047 179.425C128.108 179.409 128.185 179.432 128.223 179.501C128.353 179.723 128.56 180.006 128.912 180.296Z" fill="white"/>
<path d="M128.085 179.562L127.672 179.149C127.741 179.08 127.825 179.027 127.932 178.996L128.093 179.555L128.085 179.562Z" fill="#212121"/>
<path d="M127.97 179.891V179.463L127.664 179.157L127.978 179.027V179.455L128.277 179.761L127.97 179.891Z" fill="#212121"/>
<path d="M130.98 180.013C130.85 180.029 128.913 180.296 128.913 180.296C128.644 180.075 128.254 179.715 128.078 179.539C128.032 179.493 128.047 179.409 128.101 179.379C131.095 177.826 131.011 179.723 130.98 180.013Z" fill="#A3603E"/>
<path d="M131.394 180.281L130.98 180.151L130.552 180.113H130.881L130.575 180.013L130.881 180.113H131.417L131.394 180.281Z" fill="#212121"/>
<path d="M130.957 180.197C130.391 180.969 129.579 182.705 129.533 182.805C128.882 183.975 128.92 185.955 129.035 187.011C129.165 188.234 129.479 190.077 129.181 191.843C129.05 192.623 128.805 193.388 128.376 194.092C127.733 195.147 126.668 196.049 124.953 196.592C124.478 196.745 124.018 196.845 123.567 196.906C123.544 196.906 123.521 196.906 123.49 196.906C123.459 196.906 123.429 196.906 123.383 196.906C123.344 196.906 123.291 196.906 123.237 196.913C123.23 196.913 123.214 196.913 123.199 196.913C123.145 196.913 123.092 196.913 123.03 196.921C122.877 196.929 122.693 196.944 122.479 196.959H122.464C120.679 196.959 119.17 196.348 118.037 195.659C118.841 196.034 122.295 195.866 124.493 195.132C125.711 194.726 126.561 194.138 127.09 193.281C128.078 191.668 127.603 189.404 127.603 187.729C127.61 185.053 128.951 181.948 130.084 180.067L130.82 179.937C131.019 179.937 130.98 180.151 130.965 180.174L130.957 180.197Z" fill="#FFA605"/>
<path d="M127.955 183.478C127.741 183.738 127.228 184.066 127.097 184.143C126.607 184.411 125.788 185.083 125.581 186.085C125.543 186.307 125.497 186.521 125.458 186.735C125.397 187.056 125.336 187.378 125.274 187.691C124.869 189.718 124.218 192.012 121.667 193.488C121.2 193.763 120.71 193.992 120.22 194.183C119.683 194.398 118.328 194.818 116.987 194.963C116.206 194.352 115.777 193.839 115.777 193.839C115.777 193.839 117.661 193.969 119.806 193.128C120.227 192.968 120.664 192.761 121.1 192.509C121.177 192.463 121.253 192.417 121.33 192.371C121.552 192.233 121.751 192.081 121.943 191.928C122.065 191.828 122.188 191.713 122.295 191.606C122.349 191.553 122.402 191.499 122.456 191.438C122.51 191.385 122.556 191.323 122.609 191.27C122.87 190.964 123.084 190.635 123.268 190.291C123.314 190.207 123.352 190.115 123.398 190.031C123.436 189.947 123.475 189.855 123.513 189.763C123.536 189.702 123.559 189.649 123.582 189.588C123.62 189.496 123.658 189.396 123.689 189.305C123.727 189.19 123.773 189.068 123.804 188.953C123.835 188.838 123.873 188.716 123.904 188.601C123.965 188.356 124.026 188.112 124.08 187.859C124.103 187.737 124.133 187.607 124.156 187.477C124.263 186.957 124.355 186.422 124.463 185.879C124.815 184.066 126.293 183.21 127.235 182.843C127.695 182.659 128.3 182.927 128.3 182.927C128.3 182.927 128.116 183.263 127.94 183.478H127.955Z" fill="white"/>
<path d="M122.471 197.41L122.441 196.546L123.528 196.47L123.62 197.326C123.245 197.38 122.862 197.403 122.471 197.403V197.41Z" fill="#212121"/>
<path d="M124.164 187.469C124.141 187.599 124.11 187.722 124.087 187.852C124.034 188.104 123.972 188.349 123.911 188.593C123.881 188.716 123.85 188.83 123.812 188.945C123.773 189.068 123.735 189.182 123.697 189.297C123.666 189.389 123.628 189.488 123.589 189.58C123.567 189.641 123.544 189.695 123.521 189.756C123.184 190.077 122.264 190.78 120.281 190.712C118.619 190.65 117.232 189.786 116.313 188.762C116.451 188.356 116.903 187.783 117.531 188.203C118.282 188.708 119.561 189.259 119.561 189.259C122.372 190.046 124.087 187.599 124.172 187.462L124.164 187.469Z" fill="#FFA605"/>
<path d="M124.164 187.898V187.469L123.735 187.462H124.164V187.033V187.462H124.601L124.164 187.898Z" fill="#212121"/>
<path d="M143.396 195.476C143.396 195.782 143.266 196.088 142.997 196.317C142.676 196.585 142.163 196.822 141.397 196.975C138.41 197.563 131.716 198.122 128.376 194.092C128.805 193.396 129.05 192.623 129.181 191.843C131.547 194.933 134.764 195.965 137.154 196.065C138.731 196.133 141.948 196.026 143.396 195.476Z" fill="#FFA605"/>
<path d="M122.487 197.41H122.456C118.259 197.403 115.563 194.252 115.448 194.115L114.797 193.335L115.808 193.403C115.808 193.403 117.631 193.518 119.645 192.723C120.074 192.562 120.488 192.363 120.878 192.134C122.87 190.979 123.367 189.228 123.743 187.377C123.804 187.072 123.865 186.758 123.927 186.445C123.965 186.23 124.011 186.009 124.049 185.787C124.447 183.745 126.125 182.812 127.09 182.438C127.342 182.338 127.557 182.269 127.71 182.231L128.591 179.914L130.812 179.532C131.034 179.532 131.226 179.646 131.333 179.83C131.432 180.013 131.425 180.281 131.317 180.442V180.457C130.85 181.092 130.153 182.506 129.924 182.996L129.878 183.08C129.357 184.066 129.326 185.787 129.456 186.972C129.472 187.148 129.495 187.332 129.525 187.53C129.747 189.366 130.084 192.142 128.736 194.329C127.97 195.583 126.737 196.485 125.068 197.013C124.585 197.166 124.095 197.28 123.605 197.342C123.559 197.342 123.521 197.349 123.475 197.349C123.429 197.349 123.398 197.349 123.367 197.349L122.479 197.41H122.487ZM116.811 194.252C117.815 195.132 119.837 196.546 122.456 196.546L123.482 196.477C123.934 196.416 124.378 196.317 124.815 196.179C126.293 195.713 127.342 194.956 128.001 193.87C129.188 191.935 128.874 189.343 128.667 187.63C128.644 187.431 128.621 187.24 128.599 187.064C128.545 186.582 128.315 184.097 129.15 182.606C129.25 182.392 129.755 181.321 130.238 180.503L129.219 180.679L128.346 182.98L128.108 183.026C128.108 183.026 127.81 183.08 127.396 183.248C126.416 183.63 125.19 184.41 124.892 185.963C124.846 186.185 124.807 186.399 124.769 186.613C124.708 186.934 124.646 187.255 124.585 187.561C124.187 189.526 123.612 191.553 121.315 192.891C120.886 193.143 120.426 193.357 119.959 193.541C118.734 194.023 117.592 194.199 116.811 194.26V194.252Z" fill="#212121"/>
<path d="M123.275 195.644V194.78H123.329C123.651 194.734 123.972 194.658 124.302 194.558C125.374 194.222 126.109 193.702 126.554 192.975C126.676 192.769 126.944 192.708 127.151 192.83C127.358 192.952 127.419 193.22 127.296 193.426C126.737 194.336 125.849 194.979 124.57 195.384C124.187 195.506 123.804 195.59 123.429 195.644H123.283H123.275Z" fill="#212121"/>
<path d="M119.821 193.587L119.676 193.541C117.141 192.738 115.777 191.14 115.831 189.029V188.983C115.831 188.639 116.099 188.02 116.604 187.752C116.972 187.553 117.386 187.592 117.769 187.852C118.412 188.288 119.523 188.777 119.699 188.853C122.234 189.542 123.743 187.324 123.812 187.225L125.029 185.397L124.593 187.553C124.195 189.519 123.62 191.553 121.315 192.883C120.886 193.136 120.426 193.35 119.959 193.533L119.821 193.587ZM117.087 188.494C117.087 188.494 117.026 188.509 117.01 188.517C116.834 188.609 116.704 188.892 116.696 188.991V189.06C116.658 190.735 117.723 191.981 119.791 192.677C120.166 192.524 120.534 192.348 120.878 192.142C122.31 191.308 122.977 190.161 123.367 188.899C122.494 189.565 121.154 190.169 119.431 189.679L119.377 189.664C119.323 189.641 118.044 189.098 117.271 188.57C117.187 188.509 117.125 188.494 117.079 188.494H117.087Z" fill="#212121"/>
<path d="M137.085 197.862C131.448 197.862 128.813 195.3 128.039 194.367L127.84 194.13L128.001 193.87C129.188 191.943 128.874 189.343 128.667 187.63C128.644 187.431 128.621 187.24 128.599 187.064C128.545 186.582 128.315 184.097 129.15 182.606L129.219 182.514L129.464 182.269L129.755 182.445C130.467 182.881 132.168 184.166 132.581 186.567C133.025 189.182 133.715 190.758 134.741 191.53C135.645 192.21 138.77 193.266 142.438 193.847C143.082 193.954 143.587 194.405 143.763 195.04C143.932 195.644 143.74 196.263 143.266 196.661C142.844 197.005 142.247 197.258 141.473 197.41C139.842 197.732 138.379 197.869 137.085 197.869V197.862ZM128.897 194.038C132.512 198.053 139.85 196.837 141.305 196.554C141.933 196.432 142.408 196.24 142.714 195.988C142.929 195.812 143.005 195.537 142.929 195.262C142.867 195.025 142.668 194.749 142.308 194.696C138.846 194.145 135.369 193.075 134.228 192.218C132.995 191.293 132.229 189.595 131.731 186.712C131.44 185.03 130.414 183.99 129.709 183.462C129.349 184.472 129.341 185.925 129.456 186.972C129.472 187.148 129.495 187.332 129.525 187.53C129.74 189.289 130.054 191.912 128.897 194.053V194.038Z" fill="#212121"/>
<path d="M137.154 196.126C135.239 196.126 132.428 195.491 130.299 193.702C130.115 193.549 130.092 193.273 130.245 193.09C130.398 192.906 130.674 192.883 130.858 193.036C132.811 194.68 135.392 195.262 137.154 195.262C137.391 195.262 137.583 195.453 137.583 195.69C137.583 195.927 137.391 196.118 137.154 196.118V196.126Z" fill="#212121"/>
<path d="M119.438 197.143C117.623 197.219 115.693 197.258 114.736 197.143C113.526 196.982 112.56 196.531 111.634 195.407C110.148 193.61 111.473 191.186 111.741 190.865C111.948 190.62 112.576 190.375 113.081 190.666C112.836 191.117 111.634 193.625 112.507 194.68C113.196 195.514 114.039 195.873 114.245 195.958C114.475 196.057 115.716 196.455 116.643 196.661C117.547 196.868 118.58 197.028 119.438 197.143Z" fill="white"/>
<path d="M116.574 197.648C115.808 197.648 115.142 197.625 114.682 197.563C113.273 197.38 112.231 196.799 111.304 195.675C109.619 193.64 111.075 190.987 111.412 190.582C111.634 190.314 112.139 190.054 112.706 190.1C113.204 190.146 113.617 190.421 113.886 190.88C114.36 191.706 116.084 193.526 116.099 193.541C116.137 193.587 118.68 196.539 122.464 196.546L122.494 197.41C120.909 197.51 118.443 197.648 116.581 197.648H116.574ZM112.568 190.956C112.323 190.956 112.116 191.079 112.078 191.132C111.864 191.385 110.684 193.564 111.971 195.124C112.775 196.095 113.587 196.554 114.797 196.707C115.67 196.822 117.432 196.791 119.124 196.722C116.88 195.782 115.532 194.214 115.456 194.115C115.402 194.053 113.663 192.226 113.135 191.308C113.005 191.086 112.844 190.972 112.629 190.956C112.606 190.956 112.591 190.956 112.568 190.956Z" fill="#212121"/>
<path d="M126.661 183.531L127.496 179.455C127.526 179.31 127.603 179.188 127.718 179.103L127.779 179.065C127.779 179.065 127.825 179.035 127.848 179.027L127.94 178.996C128.2 178.935 128.468 179.058 128.591 179.287C128.721 179.516 128.92 179.746 129.181 179.96L129.418 180.159L128.346 182.973L128.108 183.019C128.108 183.019 127.81 183.072 127.396 183.24L126.653 183.531H126.661ZM128.223 180.228L127.932 181.658L128.407 180.411C128.346 180.35 128.285 180.289 128.231 180.22L128.223 180.228ZM127.848 179.715C127.848 179.715 127.848 179.715 127.848 179.723C127.848 179.723 127.848 179.723 127.848 179.715Z" fill="#212121"/>
<path d="M128.085 179.562L127.672 179.149C127.741 179.08 127.825 179.027 127.932 178.996L128.093 179.555L128.085 179.562Z" fill="#212121"/>
<path d="M127.97 179.891V179.463L127.664 179.157L127.978 179.027V179.455L128.277 179.761L127.97 179.891Z" fill="#212121"/>
<path d="M128.782 180.748L128.637 180.625C128.369 180.396 127.955 180.021 127.771 179.838C127.656 179.715 127.603 179.547 127.626 179.379C127.656 179.21 127.756 179.065 127.909 178.989C129.273 178.285 130.23 178.155 130.85 178.583C131.501 179.042 131.432 179.899 131.409 180.067L131.371 180.396L128.782 180.748ZM128.729 179.555C128.836 179.654 128.943 179.753 129.05 179.838L130.544 179.639C130.521 179.509 130.467 179.371 130.36 179.295C130.23 179.203 129.816 179.065 128.729 179.555Z" fill="#212121"/>
<path d="M131.394 180.281L130.98 180.151L130.552 180.113H130.881L130.575 180.013L130.881 180.113H131.417L131.394 180.281Z" fill="#212121"/>
<path d="M140.118 177.039C141.171 177.039 142.025 176.186 142.025 175.135C142.025 174.083 141.171 173.231 140.118 173.231C139.064 173.231 138.211 174.083 138.211 175.135C138.211 176.186 139.064 177.039 140.118 177.039Z" fill="white"/>
<path d="M133.094 205.126C133.89 205.126 134.534 204.483 134.534 203.689C134.534 202.895 133.89 202.251 133.094 202.251C132.299 202.251 131.654 202.895 131.654 203.689C131.654 204.483 132.299 205.126 133.094 205.126Z" fill="white"/>
<path d="M118.006 178.538C118.006 178.836 117.761 179.081 117.462 179.081C117.309 179.081 117.179 179.019 117.079 178.92C116.98 178.821 116.918 178.691 116.918 178.538V177.031H115.41C115.111 177.031 114.866 176.786 114.866 176.488C114.866 176.19 115.111 175.945 115.41 175.945H116.918V174.439C116.918 174.141 117.164 173.896 117.462 173.896C117.761 173.896 118.006 174.141 118.006 174.439V175.945H119.515C119.814 175.945 120.059 176.19 120.059 176.488C120.059 176.641 119.997 176.771 119.898 176.871C119.798 176.97 119.66 177.031 119.507 177.031H117.998V178.538H118.006Z" fill="white"/>
<path d="M235.35 188.387V203.628C235.35 205.952 233.466 207.834 231.138 207.834H214.954L208.107 200.997L221.334 174.393L235.35 188.387Z" fill="#5F3CBF"/>
<path d="M235.35 172.542V188.387L221.334 174.393L208.107 200.997L214.954 207.833H199.996C197.668 207.833 195.784 205.952 195.784 203.628V172.542C195.784 170.218 197.668 168.336 199.996 168.336H231.13C233.458 168.336 235.342 170.218 235.342 172.542H235.35Z" fill="#8451F4"/>
<path d="M221.334 178.767C221.334 179.019 221.434 179.264 221.61 179.448C222.874 180.748 223.953 182.162 223.953 183.891V197.984C223.953 199.842 222.445 201.349 220.583 201.349H215.559H210.535C208.674 201.349 207.165 199.842 207.165 197.984V183.891C207.165 182.162 208.245 180.748 209.509 179.448C209.685 179.264 209.784 179.027 209.784 178.767V174.768C209.784 174.316 210.144 173.957 210.596 173.957H220.507C220.959 173.957 221.319 174.316 221.319 174.768V178.767H221.334Z" fill="#90E0DC"/>
<path d="M221.342 177.865H209.8V178.897H221.342V177.865Z" fill="#3CA8C6"/>
<path d="M223.953 183.891V197.984C223.953 199.842 222.445 201.349 220.583 201.349H217.259C221.012 201.349 221.104 199.261 221.112 197.984C221.127 194.466 221.112 183.891 221.112 183.891C221.112 183.279 220.637 182.514 219.572 181.428C218.876 180.717 218.493 179.769 218.493 178.775V173.965H220.515C220.966 173.965 221.326 174.332 221.326 174.775V178.775C221.326 179.027 221.434 179.272 221.602 179.448C222.866 180.748 223.946 182.162 223.946 183.891H223.953Z" fill="#3CA8C6"/>
<path d="M212.603 201.341H210.543C208.681 201.341 207.18 199.835 207.18 197.976V183.883C207.18 182.155 208.252 180.74 209.524 179.44C209.7 179.264 209.8 179.012 209.8 178.767V174.768C209.8 174.324 210.16 173.957 210.611 173.957H211.224V178.767C211.224 179.394 210.979 179.983 210.543 180.426C209.179 181.818 208.605 182.858 208.605 183.883V197.976C208.605 199.445 210.068 200.691 212.61 201.341H212.603Z" fill="white"/>
<path d="M221.334 174.768V175.984H218.493V173.957H220.515C220.966 173.957 221.326 174.324 221.326 174.768H221.334Z" fill="#FFA605"/>
<path d="M218.493 173.957V175.984H209.8V174.768C209.8 174.324 210.16 173.957 210.611 173.957H218.5H218.493Z" fill="#FFE202"/>
<path d="M220.591 201.769H210.55C208.452 201.769 206.751 200.072 206.751 197.976V183.883C206.751 181.933 208 180.388 209.217 179.142C209.317 179.035 209.371 178.905 209.371 178.767V174.768C209.371 174.079 209.93 173.529 210.611 173.529H220.522C221.212 173.529 221.763 174.087 221.763 174.768V178.767C221.763 178.905 221.817 179.042 221.916 179.142C223.134 180.388 224.382 181.933 224.382 183.883V197.976C224.382 200.064 222.682 201.769 220.583 201.769H220.591ZM210.611 174.393C210.405 174.393 210.228 174.561 210.228 174.775V178.775C210.228 179.142 210.083 179.486 209.83 179.754C208.735 180.878 207.609 182.254 207.609 183.891V197.984C207.609 199.598 208.926 200.913 210.543 200.913H220.583C222.2 200.913 223.517 199.598 223.517 197.984V183.891C223.517 182.246 222.399 180.878 221.296 179.754C221.035 179.486 220.898 179.142 220.898 178.775V174.775C220.898 174.569 220.729 174.393 220.515 174.393H210.604H210.611Z" fill="#212121"/>
<path d="M210.489 198.412C210.251 198.412 210.06 198.221 210.06 197.984V183.891C210.06 183.286 210.527 182.537 211.584 181.451C211.753 181.283 212.021 181.275 212.197 181.443C212.365 181.612 212.373 181.879 212.205 182.055C211.048 183.241 210.925 183.73 210.925 183.891V197.984C210.925 198.221 210.734 198.412 210.497 198.412H210.489Z" fill="white"/>
<path d="M222.544 176.863C222.544 177.337 222.154 177.735 221.671 177.735H209.47C208.988 177.735 208.597 177.337 208.597 176.863C208.597 176.389 208.988 175.991 209.47 175.991H221.671C222.154 175.991 222.544 176.381 222.544 176.863Z" fill="white"/>
<path d="M221.663 178.171H209.463C208.743 178.171 208.153 177.582 208.153 176.863C208.153 176.144 208.743 175.555 209.463 175.555H221.663C222.383 175.555 222.973 176.144 222.973 176.863C222.973 177.582 222.383 178.171 221.663 178.171ZM209.463 176.419C209.218 176.419 209.018 176.618 209.018 176.863C209.018 177.108 209.218 177.306 209.463 177.306H221.663C221.901 177.306 222.108 177.108 222.108 176.863C222.108 176.618 221.909 176.419 221.663 176.419H209.463Z" fill="#212121"/>
<path d="M230.418 199.552C231.471 199.552 232.325 198.699 232.325 197.648C232.325 196.596 231.471 195.744 230.418 195.744C229.364 195.744 228.511 196.596 228.511 197.648C228.511 198.699 229.364 199.552 230.418 199.552Z" fill="white"/>
<path d="M201.98 191.392C201.98 191.69 201.735 191.935 201.436 191.935C201.283 191.935 201.153 191.874 201.053 191.775C200.953 191.675 200.892 191.545 200.892 191.392V189.886H199.383C199.085 189.886 198.84 189.641 198.84 189.343C198.84 189.045 199.085 188.8 199.383 188.8H200.892V187.293C200.892 186.995 201.137 186.75 201.436 186.75C201.735 186.75 201.98 186.995 201.98 187.293V188.8H203.489C203.787 188.8 204.032 189.045 204.032 189.343C204.032 189.496 203.971 189.626 203.872 189.725C203.772 189.825 203.634 189.886 203.481 189.886H201.972V191.392H201.98Z" fill="white"/>
<path d="M227.553 176.909C227.339 177.123 226.994 177.123 226.78 176.909C226.672 176.802 226.619 176.664 226.619 176.526C226.619 176.389 226.672 176.251 226.78 176.144L227.852 175.074L226.78 174.003C226.573 173.796 226.573 173.445 226.78 173.238C226.994 173.024 227.339 173.024 227.553 173.238L228.618 174.309L229.69 173.238C229.905 173.024 230.249 173.024 230.456 173.238C230.67 173.452 230.67 173.796 230.456 174.003L229.384 175.074L230.456 176.144C230.67 176.358 230.67 176.702 230.456 176.909C230.349 177.016 230.211 177.069 230.073 177.069C229.935 177.069 229.79 177.016 229.69 176.909L228.618 175.838L227.553 176.909Z" fill="white"/>
<path d="M279.543 189.511V203.628C279.543 205.952 277.659 207.834 275.338 207.834H262.984L259.759 204.614L258.465 203.322L251.174 196.042L260.832 195.162L261.238 195.621L267.886 177.865L279.543 189.504V189.511Z" fill="#F462CE"/>
<path d="M279.543 172.542V189.511L267.886 177.872L261.238 195.629L260.832 195.17L251.174 196.049L258.465 203.329L259.759 204.622L262.984 207.841H244.204C241.876 207.841 239.991 205.96 239.991 203.635V172.55C239.991 170.225 241.876 168.344 244.204 168.344H275.338C277.659 168.344 279.543 170.225 279.543 172.55V172.542Z" fill="#FF9FE2"/>
<path d="M249.159 201.777C249.159 202.832 248.302 203.689 247.252 203.689C246.203 203.689 245.337 202.832 245.337 201.777C245.337 200.722 246.195 199.865 247.252 199.865C248.309 199.865 249.159 200.722 249.159 201.777Z" fill="white"/>
<path d="M249.175 177.926C249.389 178.14 249.389 178.484 249.175 178.698C249.067 178.805 248.93 178.851 248.784 178.851C248.639 178.851 248.508 178.798 248.401 178.698L247.337 177.635L246.264 178.698C246.057 178.905 245.713 178.905 245.491 178.698C245.276 178.484 245.276 178.14 245.491 177.926L246.563 176.863L245.491 175.8C245.276 175.586 245.276 175.242 245.491 175.028C245.705 174.814 246.05 174.814 246.264 175.028L247.337 176.091L248.401 175.028C248.616 174.814 248.953 174.814 249.175 175.028C249.282 175.135 249.336 175.272 249.336 175.41C249.336 175.548 249.282 175.693 249.175 175.8L248.102 176.863L249.175 177.926Z" fill="white"/>
<path d="M277.475 193.082C277.475 193.235 277.414 193.373 277.314 193.465C277.214 193.572 277.077 193.625 276.931 193.625H275.415V195.132C275.415 195.438 275.169 195.682 274.871 195.682C274.725 195.682 274.587 195.621 274.488 195.522C274.388 195.422 274.327 195.292 274.327 195.139V193.625H272.81C272.519 193.625 272.267 193.381 272.267 193.082C272.267 192.784 272.512 192.539 272.818 192.539H274.327V191.033C274.327 190.735 274.572 190.49 274.871 190.49C275.169 190.49 275.422 190.735 275.415 191.033V192.547H276.931C277.23 192.547 277.475 192.792 277.475 193.09V193.082Z" fill="white"/>
<path d="M268.659 180.778L267.587 183.569L256.443 179.31L257.515 176.519C257.914 175.471 259.093 174.951 260.135 175.349L267.487 178.155C268.537 178.553 269.057 179.731 268.659 180.778Z" fill="#FFE202"/>
<path d="M263.091 195.308L262.019 198.099C261.621 199.146 260.441 199.666 259.392 199.269L252.039 196.462C250.99 196.065 250.469 194.895 250.875 193.839L251.947 191.048L263.091 195.308Z" fill="#FFE202"/>
<path d="M256.444 179.305L251.942 191.045L263.086 195.305L267.588 183.565L256.444 179.305Z" fill="#A4D1D0"/>
<path d="M268.659 180.778L267.587 183.569L264.615 182.43L266.415 177.742L267.487 178.155C268.537 178.553 269.057 179.731 268.659 180.778Z" fill="#FFA605"/>
<path d="M263.091 195.308L262.019 198.099C261.621 199.146 260.441 199.666 259.392 199.269L258.32 198.856L260.119 194.168L263.091 195.308Z" fill="#FFA605"/>
<path d="M264.621 182.43L260.119 194.171L263.094 195.309L267.597 183.568L264.621 182.43Z" fill="#5F9298"/>
<path d="M260.135 175.349L258.335 180.036L256.443 179.318L257.515 176.526C257.914 175.479 259.085 174.959 260.135 175.356V175.349Z" fill="#FFF3AB"/>
<path d="M253.839 191.775L252.039 196.462C250.998 196.057 250.477 194.895 250.875 193.847L251.947 191.056L253.839 191.775Z" fill="#FFF3AB"/>
<path d="M256.448 179.311L251.946 191.052L253.834 191.773L258.336 180.033L256.448 179.311Z" fill="white"/>
<path d="M266.829 176.664L266.415 177.742L261.215 175.754L261.628 174.676C261.781 174.271 262.241 174.064 262.647 174.217L266.369 175.639C266.775 175.792 266.982 176.251 266.829 176.657V176.664Z" fill="#A4D1D0"/>
<path d="M255.892 179.562L257.117 176.366C257.6 175.096 259.032 174.462 260.296 174.943L267.648 177.75C268.92 178.239 269.555 179.662 269.073 180.931L267.847 184.128L255.899 179.562H255.892ZM267.824 178.859C267.687 178.736 267.526 178.637 267.342 178.568L259.989 175.762C259.17 175.448 258.243 175.861 257.929 176.687L257.01 179.073L267.342 183.026L268.261 180.641C268.506 179.998 268.307 179.295 267.824 178.866V178.859Z" fill="#212121"/>
<path d="M251.143 196.409C250.883 196.179 250.668 195.896 250.523 195.568C250.255 194.971 250.239 194.298 250.477 193.686L251.702 190.49L263.65 195.055L262.425 198.252C262.187 198.864 261.728 199.353 261.13 199.621C260.533 199.888 259.859 199.904 259.246 199.674L251.894 196.868C251.618 196.761 251.365 196.608 251.143 196.416V196.409ZM252.2 191.606L251.281 193.992C251.128 194.39 251.135 194.826 251.312 195.216C251.488 195.606 251.802 195.904 252.2 196.057L259.553 198.864C260.38 199.177 261.307 198.764 261.621 197.946L262.54 195.56L252.208 191.606H252.2Z" fill="#212121"/>
<path d="M251.388 191.301L256.198 178.759L268.146 183.325L263.336 195.866L251.388 191.301ZM256.696 179.868L252.506 190.804L262.838 194.757L267.028 183.822L256.696 179.868Z" fill="#212121"/>
<path d="M260.656 176.006L261.222 174.523C261.337 174.217 261.567 173.98 261.866 173.842C262.164 173.705 262.494 173.697 262.8 173.819L266.522 175.242C266.829 175.356 267.066 175.586 267.204 175.884C267.334 176.182 267.35 176.511 267.227 176.817L266.66 178.301L260.656 176.006ZM266.323 176.114C266.323 176.114 266.254 176.06 266.216 176.045L262.494 174.622C262.402 174.592 262.31 174.592 262.226 174.622C262.141 174.661 262.072 174.729 262.034 174.821L261.774 175.502L266.162 177.176L266.423 176.496C266.453 176.404 266.453 176.312 266.423 176.221C266.4 176.175 266.369 176.129 266.331 176.098L266.323 176.114Z" fill="#212121"/>
<path d="M262.226 180.48C262.095 180.365 262.042 180.174 262.111 179.998L262.923 177.872C263.007 177.651 263.26 177.536 263.482 177.62C263.704 177.704 263.819 177.957 263.734 178.178L262.923 180.304C262.838 180.526 262.586 180.641 262.363 180.557C262.318 180.541 262.272 180.511 262.233 180.48H262.226Z" fill="#212121"/>
<path d="M261.567 179.012C261.437 178.897 261.383 178.706 261.452 178.53C261.536 178.308 261.789 178.194 262.011 178.278L264.14 179.088C264.362 179.172 264.477 179.425 264.393 179.646C264.309 179.868 264.056 179.983 263.834 179.899L261.705 179.088C261.659 179.073 261.613 179.042 261.575 179.012H261.567Z" fill="#212121"/>
<path d="M255.271 195.438C255.141 195.323 255.087 195.132 255.156 194.956C255.241 194.734 255.493 194.619 255.715 194.704L257.845 195.514C258.067 195.598 258.182 195.851 258.097 196.072C258.013 196.294 257.76 196.409 257.538 196.325L255.409 195.514C255.363 195.499 255.317 195.468 255.279 195.438H255.271Z" fill="#212121"/>
</g>
<defs>
<filter id="filter0_d_19_156" x="0.519165" y="0.707642" width="297.517" height="217.134" filterUnits="userSpaceOnUse" color-interpolation-filters="sRGB">
<feFlood flood-opacity="0" result="BackgroundImageFix"/>
<feColorMatrix in="SourceAlpha" type="matrix" values="0 0 0 0 0 0 0 0 0 0 0 0 0 0 0 0 0 0 127 0" result="hardAlpha"/>
<feOffset/>
<feGaussianBlur stdDeviation="5"/>
<feColorMatrix type="matrix" values="0 0 0 0 0.227451 0 0 0 0 0.227451 0 0 0 0 0.227451 0 0 0 0.5 0"/>
<feBlend mode="normal" in2="BackgroundImageFix" result="effect1_dropShadow_19_156"/>
<feBlend mode="normal" in="SourceGraphic" in2="effect1_dropShadow_19_156" result="shape"/>
</filter>
<filter id="filter1_d_19_156" x="30.9189" y="16.0288" width="236.695" height="71.9612" filterUnits="userSpaceOnUse" color-interpolation-filters="sRGB">
<feFlood flood-opacity="0" result="BackgroundImageFix"/>
<feColorMatrix in="SourceAlpha" type="matrix" values="0 0 0 0 0 0 0 0 0 0 0 0 0 0 0 0 0 0 127 0" result="hardAlpha"/>
<feOffset/>
<feGaussianBlur stdDeviation="4"/>
<feColorMatrix type="matrix" values="0 0 0 0 1 0 0 0 0 0.690196 0 0 0 0 0 0 0 0 0.7 0"/>
<feBlend mode="normal" in2="BackgroundImageFix" result="effect1_dropShadow_19_156"/>
<feBlend mode="normal" in="SourceGraphic" in2="effect1_dropShadow_19_156" result="shape"/>
</filter>
<filter id="filter2_d_19_156" x="16.7573" y="87.85" width="265.018" height="70.1644" filterUnits="userSpaceOnUse" color-interpolation-filters="sRGB">
<feFlood flood-opacity="0" result="BackgroundImageFix"/>
<feColorMatrix in="SourceAlpha" type="matrix" values="0 0 0 0 0 0 0 0 0 0 0 0 0 0 0 0 0 0 127 0" result="hardAlpha"/>
<feOffset/>
<feGaussianBlur stdDeviation="4"/>
<feColorMatrix type="matrix" values="0 0 0 0 1 0 0 0 0 0.690196 0 0 0 0 0 0 0 0 0.7 0"/>
<feBlend mode="normal" in2="BackgroundImageFix" result="effect1_dropShadow_19_156"/>
<feBlend mode="normal" in="SourceGraphic" in2="effect1_dropShadow_19_156" result="shape"/>
</filter>
<filter id="filter3_d_19_156" x="113.618" y="82.8794" width="86.5983" height="80.1052" filterUnits="userSpaceOnUse" color-interpolation-filters="sRGB">
<feFlood flood-opacity="0" result="BackgroundImageFix"/>
<feColorMatrix in="SourceAlpha" type="matrix" values="0 0 0 0 0 0 0 0 0 0 0 0 0 0 0 0 0 0 127 0" result="hardAlpha"/>
<feOffset/>
<feGaussianBlur stdDeviation="4"/>
<feColorMatrix type="matrix" values="0 0 0 0 1 0 0 0 0 0.690196 0 0 0 0 0 0 0 0 0.7 0"/>
<feBlend mode="normal" in2="BackgroundImageFix" result="effect1_dropShadow_19_156"/>
<feBlend mode="normal" in="SourceGraphic" in2="effect1_dropShadow_19_156" result="shape"/>
</filter>
</defs>
</svg>
