<svg width="101" height="94" viewBox="0 0 101 94" fill="none" xmlns="http://www.w3.org/2000/svg">
<path id="&#209;&#128;&#209;&#131;&#208;&#186;&#208;&#190;&#208;&#191;&#208;&#190;&#208;&#182;&#208;&#176;&#209;&#130;&#208;&#184;&#208;&#181;" d="M91.04 10.0733C81.2 0.4033 66.02 -1.6367 54.34 5.5533C51.52 7.2933 49.94 7.0733 47.27 5.3533C37.1 -1.1467 26.31 -1.8567 15.62 3.9333C5.4 9.4633 0.27 18.3833 0 27.3433C0.03 39.5833 3.45 48.1733 10.2 55.6833C10.91 56.4733 11.71 57.1233 11.86 58.3533C12.4 63.0433 15.15 65.9933 19.54 67.4133C20.54 67.7333 20.9 68.1633 21.19 69.1533C22.23 72.6733 24.57 75.0033 28.17 75.9333C29.1 76.1833 29.62 76.5133 29.91 77.5833C30.98 81.5633 33.82 83.9233 37.62 85.1533C38.8 85.5433 39.51 86.0133 40.04 87.2533C42.66 93.3133 49.76 94.9133 54.75 90.5833C57.4 88.2933 60.02 85.9133 62.08 83.0733C63.19 81.5333 64.3 80.9633 66.26 81.1133C70.66 81.4733 73.7 79.1833 74.64 74.8633C74.98 73.3233 75.68 72.9733 77.02 72.6833C80.72 71.8933 83.07 69.5733 83.62 65.7933C83.83 64.3933 84.26 63.9533 85.66 63.6833C89.81 62.9033 92.74 60.0033 92.71 56.3333C92.69 53.9733 93.46 52.2333 94.84 50.5233C95.45 49.7633 95.9 48.8633 96.37 47.9933C103.34 35.3233 101.19 20.0233 91.04 10.0733ZM23.02 62.4433C20.95 64.4433 19.38 62.8933 17.95 61.5833C15.91 59.7333 15.63 57.7233 17.08 56.2833C19.95 53.4433 22.88 50.6633 25.79 47.8533C26.66 47.0133 27.69 46.5333 29.67 46.5433C30.98 46.5833 32.21 47.7633 33 49.5133C33.72 51.1033 33.39 52.4533 32.13 53.6533C29.08 56.5733 26.06 59.5133 23.02 62.4433ZM31.53 71.2033C29.63 72.9033 27.93 71.5433 26.66 70.1933C25.41 68.8533 24.17 67.2533 26.19 65.3733C29.26 62.5033 32.21 59.5033 35.28 56.6233C36.66 55.3233 38.37 54.7333 40.21 55.4933C41.91 56.1933 42.27 57.8333 42.5 59.2333C42.53 60.2933 42.36 61.0533 41.72 61.6533C38.32 64.8433 35 68.1033 31.53 71.2033ZM41.47 80.1433C39.98 81.6833 37.6 81.2233 35.49 79.0333C33.65 77.1233 33.52 75.3333 35.17 73.7533C38.16 70.9133 41.23 68.1533 44.15 65.2333C45.72 63.6633 47.42 63.9033 49.12 64.5333C50.84 65.1733 51.4 66.6933 51.33 68.5333C51.51 69.5533 50.99 70.2833 50.25 71.0433C47.29 74.0433 44.41 77.1233 41.47 80.1433ZM60.08 78.3633C57.68 82.3733 54.29 85.6233 50.38 88.2533C49.89 88.5733 49.19 88.5833 48.87 88.6633C46.76 88.5833 45.27 87.9733 44.32 86.3133C43.63 85.1033 43.51 84.1533 44.67 83.0033C47.74 79.9833 50.71 76.8633 53.61 73.6733C55.09 72.0333 56.58 72.1633 58.1 73.3033C59.76 74.5533 61.15 76.5833 60.08 78.3633ZM87.42 58.1933C85.66 59.9233 82.52 60.1033 80.9 58.4833C75.25 52.8133 69.63 47.1233 64 41.4433C63.49 40.9333 63 40.3933 62.43 39.9633C61.54 39.2833 60.58 39.2833 59.74 40.0533C58.81 40.8933 58.66 41.9533 59.47 42.9233C60.39 44.0233 61.45 45.0133 62.46 46.0333C67.65 51.2633 72.85 56.4833 78.04 61.7233C79.81 63.5133 79.9 65.8033 78.29 67.3833C76.54 69.0933 74.12 69.0933 72.36 67.2833C66.39 61.1833 60.44 55.0533 54.48 48.9433C53.8 48.2433 53.17 47.4233 52.04 47.4733C51.17 47.5133 50.5 47.8733 50.14 48.7233C49.67 49.8033 50.1 50.6233 50.83 51.3833C53.15 53.7633 55.47 56.1533 57.79 58.5333C61.62 62.4633 65.42 66.4033 69.31 70.2733C70.64 71.6033 70.97 72.9733 70.24 74.6533C69.49 76.3633 68.16 76.9733 66.34 76.8733C65.21 76.8233 64.57 76.4633 64.26 75.2733C63.24 71.3533 60.74 68.8933 56.7 68.1833C55.93 68.0433 55.7 67.7633 55.58 67.0233C54.92 62.8733 52.49 60.4533 48.31 59.9333C47.2 59.8033 46.89 59.2833 46.66 58.2633C45.48 53.1533 43.84 51.5833 38.83 50.9333C37.64 50.7733 37.66 50.1133 37.45 49.3833C35.22 41.8133 27.89 39.8333 22.23 45.2733C19.83 47.5833 17.44 49.8933 15.08 52.2433C14.33 52.9933 13.84 53.2733 12.96 52.3033C3.95 42.4633 0.34 25.1233 10.25 13.6433C19.59 2.8033 35.02 1.4233 46.93 10.2833C41.92 15.5933 37.01 20.9633 31.92 26.1633C26.66 31.5233 27.66 37.2033 34.67 40.0733C40.56 42.4833 45.8 40.8933 50.37 36.8833C53.55 34.0933 56.57 31.1333 59.48 28.0733C60.87 26.6233 61.55 26.9433 62.79 28.2233C70.8 36.4833 78.89 44.6533 86.95 52.8633C88.86 54.8133 89.01 56.6133 87.42 58.1933ZM90.78 48.8333C81.79 40.2833 72.85 31.8133 63.95 23.3033C61.29 20.7633 60.91 20.6933 58.31 23.2333C54.83 26.6233 51.41 30.0733 47.86 33.3733C44 36.9533 39.54 37.7733 35.77 35.8233C32.28 34.0233 31.97 32.1833 34.76 29.4333C40.34 23.9533 45.91 18.4733 51.54 13.0533C58.93 5.9333 67.74 3.8833 77.4 6.8533C87.18 9.8733 93.21 16.8333 95.49 26.7833C97.4 35.1533 95.23 42.7333 90.78 48.8333Z" fill="#212121"/>
</svg>
