<svg width="118" height="96" viewBox="0 0 118 96" fill="none" xmlns="http://www.w3.org/2000/svg">
<g id="&#208;&#180;&#208;&#182;&#208;&#190;&#208;&#185;&#209;&#129;&#209;&#130;&#208;&#184;&#208;&#186;">
<path id="Vector" d="M85.92 95.5998C77.8 95.5998 70.05 92.2398 64.52 86.3598H50.81C45.27 92.2398 37.53 95.5998 29.41 95.5998C13.2 95.5998 0.0100098 82.4098 0.0100098 66.1998C0.0100098 49.9898 13.2 36.7998 29.41 36.7998H85.93C102.14 36.7998 115.33 49.9898 115.33 66.1998C115.33 82.4098 102.14 95.5998 85.93 95.5998H85.92ZM49.02 82.3598H66.3L66.9 83.0398C71.71 88.4798 78.64 91.5998 85.92 91.5998C99.93 91.5998 111.32 80.2098 111.32 66.1998C111.32 52.1898 99.93 40.7998 85.92 40.7998H29.4C15.39 40.7998 4.00001 52.1898 4.00001 66.1998C4.00001 80.2098 15.39 91.5998 29.4 91.5998C36.68 91.5998 43.61 88.4798 48.42 83.0398L49.02 82.3598Z" fill="#212121"/>
<path id="Vector_2" d="M43.16 66.5799C43.16 67.6599 42.72 68.6499 42 69.3599C41.29 70.0799 40.3 70.5199 39.22 70.5199H33.89V75.8499C33.89 78.0199 32.12 79.7899 29.95 79.7899C27.78 79.7899 26.01 78.0199 26.01 75.8499V70.5199H20.68C18.52 70.5199 16.75 68.7499 16.75 66.5799C16.75 64.4099 18.52 62.6399 20.68 62.6399H26.01V57.3099C26.01 55.1499 27.79 53.3799 29.95 53.3799C31.04 53.3799 32.02 53.8199 32.73 54.5399C33.45 55.2499 33.89 56.2299 33.89 57.3099V62.6399H39.22C41.39 62.6399 43.16 64.4199 43.16 66.5799Z" fill="#212121"/>
<g id="Group">
<path id="Vector_3" d="M77.4499 70.87C79.8192 70.87 81.7399 68.9493 81.7399 66.58C81.7399 64.2107 79.8192 62.29 77.4499 62.29C75.0806 62.29 73.1599 64.2107 73.1599 66.58C73.1599 68.9493 75.0806 70.87 77.4499 70.87Z" fill="#212121"/>
<path id="Vector_4" d="M95.7099 70.87C98.0792 70.87 99.9999 68.9493 99.9999 66.58C99.9999 64.2107 98.0792 62.29 95.7099 62.29C93.3406 62.29 91.4199 64.2107 91.4199 66.58C91.4199 68.9493 93.3406 70.87 95.7099 70.87Z" fill="#212121"/>
</g>
<g id="Group_2">
<path id="Vector_5" d="M86.58 79.9999C88.9493 79.9999 90.87 78.0792 90.87 75.7099C90.87 73.3406 88.9493 71.4199 86.58 71.4199C84.2107 71.4199 82.29 73.3406 82.29 75.7099C82.29 78.0792 84.2107 79.9999 86.58 79.9999Z" fill="#212121"/>
<path id="Vector_6" d="M86.58 61.7499C88.9493 61.7499 90.87 59.8292 90.87 57.4599C90.87 55.0906 88.9493 53.1699 86.58 53.1699C84.2107 53.1699 82.29 55.0906 82.29 57.4599C82.29 59.8292 84.2107 61.7499 86.58 61.7499Z" fill="#212121"/>
</g>
<path id="Vector_7" d="M59.7099 33.03C60.2899 24.29 67.5599 17.5 76.3399 17.5H97.3499C107.44 17.5 116.22 9.98 117.77 0H113.71C112.21 7.73 105.28 13.5 97.3499 13.5H76.3399C65.3599 13.5 56.2999 22.08 55.6899 33.03H59.7099Z" fill="#212121"/>
</g>
</svg>
