<svg width="107" height="104" viewBox="0 0 107 104" fill="none" xmlns="http://www.w3.org/2000/svg">
<g id="&#209;&#128;&#208;&#181;&#209;&#129;&#208;&#176;&#208;&#185;&#208;&#186;&#208;&#187;">
<g id="Group">
<path id="Vector" d="M80.8182 38.6303L57.8861 35.6126C56.6559 35.4549 55.268 35.2656 55.1102 33.6043L54.9841 32.269L59.3476 29.714L45.3107 6.03532C44.806 5.17313 44.1752 4.37403 43.4181 3.65904L39.5698 0L47.5714 0.0525725H47.9814L67.5174 0.0946305C71.7862 0.0946305 75.6451 2.30267 77.8321 5.99326L83.3732 15.3617L90.2707 10.872L91.4694 11.8919C92.6785 12.9223 92.1633 14.0474 91.564 15.3512L80.8392 38.6408L80.8182 38.6303ZM63.5429 32.1218C67.9484 32.7001 73.8891 33.4782 78.2947 34.0564C80.3135 29.6719 83.0578 23.7312 85.1291 19.21L81.9643 21.2708L74.1835 8.1277C72.7536 5.71988 70.2511 4.28991 67.4858 4.28991L49.117 4.23734L65.099 31.1965L63.5324 32.1218H63.5429Z" fill="#212121"/>
<path id="Vector_2" d="M42.6401 38.462L18.6461 24.0466L29.5601 5.86709C31.7366 2.2501 35.6585 0 39.8117 0H40.1377H40.1903C44.2278 0.136688 47.992 2.37628 50.0318 5.83554L56.0987 16.0451L42.6296 38.462H42.6401ZM24.4185 22.6062L41.2102 32.6896L51.22 16.0346L46.4359 7.9805C45.1426 5.78297 42.6717 4.31094 40.1272 4.2058H39.8958C39.8958 4.2058 39.8853 4.2058 39.8748 4.2058C37.1516 4.2058 34.5965 5.66731 33.1876 8.02256L24.429 22.5956L24.4185 22.6062Z" fill="#212121"/>
</g>
<g id="Group_2">
<path id="Vector_3" d="M16.0386 91.8757L11.7382 84.6417L1.71784 67.8711C-0.479689 64.212 -0.574319 59.7644 1.46549 55.9897L6.68068 46.3374L2.10688 43.8665L2.29614 42.4365C2.49591 40.9014 3.69457 40.6911 4.97733 40.4703L27.8569 36.5168L37.1307 57.8297C37.6143 58.9337 38.2137 60.3111 36.7732 61.2995L35.7112 62.025L31.3267 59.6277L18.2677 83.8531C17.784 84.7258 17.437 85.6826 17.2057 86.7025L16.0491 91.8862L16.0386 91.8757ZM10.7182 43.7403L12.3795 44.634L5.16659 57.9874C3.84177 60.4478 3.90486 63.3288 5.32431 65.7051L14.7453 81.4768L29.6233 53.8868L31.2215 54.7595C29.4656 50.7114 27.0998 45.2754 25.3229 41.2063C21.3799 41.8898 15.2605 42.9412 10.7182 43.7298V43.7403Z" fill="#212121"/>
<path id="Vector_4" d="M47.4243 97.4169H26.2166C21.9897 97.4169 18.0363 95.1983 15.9019 91.6234L15.7126 91.3184C13.7569 87.7961 13.7254 83.4115 15.6495 79.8787L21.2748 69.4167H47.4243V97.4063V97.4169ZM19.3611 89.2261L19.4873 89.4153C20.8962 91.7706 23.4618 93.2005 26.2271 93.2005H43.229V73.6225H23.7982L19.3611 81.8764C18.1414 84.116 18.152 86.9865 19.3716 89.2261H19.3611Z" fill="#212121"/>
</g>
<g id="Group_3">
<path id="Vector_5" d="M67.4753 103.263C66.508 103.263 65.8981 102.485 65.2673 101.665L51.0306 83.3169L65.4881 65.1269C66.2346 64.1911 67.1704 63.0134 68.7055 63.8125L69.8516 64.4119L69.799 69.4168L97.326 69.5745C98.3354 69.5955 99.3342 69.4483 100.344 69.1749L105.464 67.766L101.101 74.9474L90.9962 91.6654C88.7987 95.3245 84.8873 97.4589 80.6289 97.4694L69.6518 97.3958L69.6203 102.622L68.2324 103.116C67.959 103.21 67.7066 103.263 67.4753 103.263ZM56.3825 83.3485C58.8324 86.5028 62.6386 91.4131 65.467 95.0511V93.1585L80.6605 93.2636H80.7131C83.4889 93.2636 85.9808 91.8547 87.4003 89.4995L96.9054 73.7803L65.5617 73.6015L65.5827 71.7825C62.8384 75.2313 59.1478 79.8787 56.3825 83.3485Z" fill="#212121"/>
<path id="Vector_6" d="M95.1704 73.7382H95.0547L83.1839 73.6856L70.903 50.5958L95.6225 37.4526L105.58 56.1789C107.567 59.9116 107.462 64.4433 105.306 68.0078L105.128 68.3127C102.951 71.6668 99.1449 73.7382 95.1704 73.7382ZM85.7179 69.4903L95.0863 69.5324C97.6623 69.5429 100.165 68.197 101.574 66.0731L101.689 65.8733C103.109 63.5286 103.161 60.5845 101.868 58.1452L93.8876 43.141L76.5913 52.3306L85.7179 69.4903Z" fill="#212121"/>
</g>
</g>
</svg>
