<svg width="265" height="97" viewBox="0 0 265 97" fill="none" xmlns="http://www.w3.org/2000/svg">
<g opacity="0.4" filter="url(#filter0_d_201_3)">
<path d="M48.3739 85C27.2144 85 10 67.729 10 46.5C10 25.271 27.225 8 48.3739 8H216.626C237.786 8 255 25.271 255 46.5C255 67.729 237.786 85 216.626 85H48.3739Z" fill="white"/>
</g>
<g filter="url(#filter1_d_201_3)">
<path d="M216.284 16.4062H47.9516C31.4098 16.4062 18 29.8137 18 46.3526C18 62.8915 31.4098 76.2989 47.9516 76.2989H216.284C232.826 76.2989 246.236 62.8915 246.236 46.3526C246.236 29.8137 232.826 16.4062 216.284 16.4062Z" fill="white"/>
</g>
<defs>
<filter id="filter0_d_201_3" x="0" y="0" width="265" height="97" filterUnits="userSpaceOnUse" color-interpolation-filters="sRGB">
<feFlood flood-opacity="0" result="BackgroundImageFix"/>
<feColorMatrix in="SourceAlpha" type="matrix" values="0 0 0 0 0 0 0 0 0 0 0 0 0 0 0 0 0 0 127 0" result="hardAlpha"/>
<feOffset dy="2"/>
<feGaussianBlur stdDeviation="5"/>
<feColorMatrix type="matrix" values="0 0 0 0 0.717647 0 0 0 0 0.541176 0 0 0 0 0.258824 0 0 0 0.7 0"/>
<feBlend mode="normal" in2="BackgroundImageFix" result="effect1_dropShadow_201_3"/>
<feBlend mode="normal" in="SourceGraphic" in2="effect1_dropShadow_201_3" result="shape"/>
</filter>
<filter id="filter1_d_201_3" x="10" y="10.4062" width="244.236" height="75.8926" filterUnits="userSpaceOnUse" color-interpolation-filters="sRGB">
<feFlood flood-opacity="0" result="BackgroundImageFix"/>
<feColorMatrix in="SourceAlpha" type="matrix" values="0 0 0 0 0 0 0 0 0 0 0 0 0 0 0 0 0 0 127 0" result="hardAlpha"/>
<feOffset dy="2"/>
<feGaussianBlur stdDeviation="4"/>
<feColorMatrix type="matrix" values="0 0 0 0 0.756863 0 0 0 0 0.556863 0 0 0 0 0.341176 0 0 0 0.6 0"/>
<feBlend mode="normal" in2="BackgroundImageFix" result="effect1_dropShadow_201_3"/>
<feBlend mode="normal" in="SourceGraphic" in2="effect1_dropShadow_201_3" result="shape"/>
</filter>
</defs>
</svg>
