<svg width="121" height="129" viewBox="0 0 121 129" fill="none" xmlns="http://www.w3.org/2000/svg">
<path d="M60.1035 41.0188C60.0617 42.4396 59.3512 43.3381 58.0662 43.568C52.6858 44.5605 48.6217 47.329 45.989 52.1871C45.289 53.4721 44.0353 53.6915 42.7816 53.0646C41.4653 52.4064 41.2459 51.2155 41.716 49.8991C43.5756 44.7172 52.0276 38.7726 57.4916 38.7517C59.0796 38.7517 59.8527 39.6084 60.1035 41.0083V41.0188Z" fill="#272727"/>
<path d="M89.3041 49.5439C84.6132 38.2711 76.1298 31.3968 63.8959 30.1326C50.7948 28.764 40.5459 34.0817 33.87 45.3754C27.1419 56.7422 27.706 68.2761 35.4162 78.9325C39.9295 85.1696 43.0951 91.4486 42.3847 99.3468C42.1235 102.22 43.5861 103.432 46.4905 103.442C51.15 103.453 55.8096 103.442 60.4691 103.442C65.1287 103.442 70.0599 103.463 74.8553 103.442C77.4253 103.421 78.6372 102.241 78.7521 99.7125C78.7939 98.9602 78.8148 98.208 78.7521 97.4558C78.2089 90.8217 80.8625 85.3577 84.7699 80.2489C91.9473 70.8776 93.88 60.5868 89.2936 49.5439H89.3041ZM74.009 92.3888C73.8314 93.8097 73.7792 95.2723 73.8941 96.6931C74.0299 98.302 73.3613 98.6364 71.8986 98.605C68.1271 98.511 64.366 98.5737 60.5945 98.5737C56.7603 98.5632 52.9261 98.511 49.0919 98.5946C47.7128 98.6259 47.1069 98.2916 47.2114 96.7872C47.7128 89.3173 44.7144 83.0488 40.2534 77.3445C33.2223 68.3493 32.3551 57.7347 37.9341 47.9872C43.1682 38.8457 53.4694 33.5698 63.4676 34.9175C74.5836 36.4115 83.2237 44.0277 85.9922 54.9034C88.0817 63.1047 86.1176 70.491 81.0192 77.0938C77.4985 81.6593 74.7299 86.5591 74.009 92.3783V92.3888Z" fill="#272727"/>
<path d="M60.4169 120.033C64.2511 120.033 68.0853 120.033 71.9195 120.033C72.5255 120.033 73.2464 119.876 73.5389 120.597C73.8419 121.328 73.1628 121.715 72.7344 122.112C70.2584 124.4 68.3256 127.461 64.5228 127.879C61.7855 128.171 59.0588 128.203 56.332 127.858C52.2261 127.335 50.1158 124.045 47.6397 121.412C46.6263 120.325 47.9845 120.043 48.9143 120.043C52.7485 120.043 56.5827 120.043 60.4169 120.043V120.033Z" fill="#272727"/>
<path d="M60.49 105.761C64.8048 105.761 69.1196 105.751 73.4344 105.761C75.4716 105.761 76.5582 106.639 76.5477 108.185C76.5477 109.7 75.409 110.62 73.3926 110.62C64.763 110.64 56.1335 110.64 47.4934 110.62C45.4457 110.62 44.4114 109.742 44.4219 108.144C44.4323 106.545 45.4353 105.751 47.5352 105.741C51.85 105.73 56.1648 105.741 60.4796 105.741L60.49 105.761Z" fill="#272727"/>
<path d="M60.2498 117.776C55.9977 117.776 51.756 117.787 47.5039 117.776C45.4144 117.776 44.4219 116.94 44.4324 115.321C44.4324 113.712 45.4458 112.876 47.5248 112.876C56.1648 112.866 64.7944 112.866 73.4344 112.876C75.4403 112.876 76.5478 113.785 76.5373 115.342C76.5373 116.909 75.4612 117.766 73.4135 117.776C69.0256 117.797 64.6377 117.776 60.2602 117.776H60.2498Z" fill="#272727"/>
<path d="M19.8913 104.257C18.575 104.236 17.8227 103.818 17.4153 102.93C16.9869 101.99 17.0078 100.998 17.7496 100.245C21.542 96.3902 25.3762 92.5873 29.1895 88.7531C29.6806 88.2621 29.9835 88.3143 30.5268 88.7531C33.5461 91.1978 33.5775 91.3023 30.8298 94.05C27.8314 97.0484 24.833 100.057 21.8346 103.056C21.1973 103.693 20.5495 104.309 19.8913 104.268V104.257Z" fill="#272727"/>
<path d="M101.225 104.247C100.619 104.267 100.023 103.829 99.4798 103.285C95.8964 99.7019 92.3338 96.0976 88.7085 92.556C87.925 91.7828 87.9981 91.3231 88.7085 90.5605C91.1219 87.9799 91.0905 87.959 93.5248 90.4037C96.6695 93.5588 99.8142 96.7035 102.969 99.8378C103.816 100.684 104.213 101.645 103.721 102.805C103.304 103.787 102.51 104.247 101.225 104.247Z" fill="#272727"/>
<path d="M62.9974 11.0452C62.9974 13.4376 62.9243 15.8405 63.0287 18.233C63.0914 19.6121 62.6004 20.0926 61.2736 19.9255C60.7303 19.8523 60.1766 19.8628 59.6333 19.9255C58.5154 20.0404 58.0558 19.6643 58.0767 18.4524C58.1394 13.3854 58.0976 8.31835 58.108 3.2409C58.108 1.64245 58.8707 0.566356 60.5423 0.555908C62.2347 0.555908 62.9661 1.6425 62.987 3.23051C63.0183 5.83192 62.987 8.4333 62.987 11.0347L62.9974 11.0452Z" fill="#272727"/>
<path d="M19.5152 17.4598C20.4764 17.4598 21.1032 17.9613 21.6987 18.5568C25.2299 22.0985 28.7403 25.6506 32.3237 29.1296C33.1909 29.9758 33.1909 30.5295 32.2819 31.2504C31.8536 31.5847 31.4566 31.9818 31.1223 32.4101C30.2551 33.528 29.597 33.4966 28.5731 32.431C25.1672 28.8684 21.636 25.4312 18.1466 21.9418C17.3108 21.106 16.8615 20.1552 17.3421 18.9851C17.7391 18.0031 18.5227 17.5225 19.5047 17.4598H19.5152Z" fill="#272727"/>
<path d="M103.941 19.8002C103.92 20.824 103.439 21.4717 102.844 22.0672C99.3022 25.5985 95.7501 29.0983 92.2607 32.6818C91.404 33.5594 90.9443 33.434 90.1503 32.6296C87.7369 30.2162 87.7056 30.2476 90.0563 27.8969C93.201 24.7522 96.3456 21.6075 99.4903 18.4629C100.326 17.6271 101.266 17.1778 102.447 17.6793C103.439 18.0972 103.868 18.9017 103.941 19.8106V19.8002Z" fill="#272727"/>
<path d="M10.4991 58.4555C12.9647 58.4555 15.4303 58.5286 17.8854 58.4241C19.254 58.3719 19.7555 58.8629 19.5988 60.1793C19.5361 60.7226 19.5466 61.2763 19.5988 61.8196C19.7033 62.9479 19.2645 63.3867 18.0839 63.3762C13.0901 63.324 8.09619 63.3762 3.10232 63.3449C1.46208 63.3449 0.187488 62.6345 0.208383 60.8584C0.229278 59.1137 1.40984 58.4137 3.12322 58.4346C5.58881 58.4764 8.0544 58.4346 10.5095 58.4346L10.4991 58.4555Z" fill="#272727"/>
<path d="M110.585 63.3659C108.12 63.3659 105.654 63.2928 103.199 63.3972C101.81 63.4495 101.35 62.9271 101.496 61.6107C101.559 61.0047 101.538 60.3779 101.496 59.7615C101.444 58.8108 101.81 58.4347 102.802 58.4452C108.005 58.4765 113.197 58.4451 118.4 58.4765C119.946 58.4765 120.876 59.3645 120.887 60.8898C120.887 62.4465 119.842 63.2823 118.379 63.3241C115.778 63.4077 113.176 63.345 110.585 63.345V63.3659Z" fill="#272727"/>
<path d="M60.1035 41.0188C60.0617 42.4396 59.3512 43.3381 58.0662 43.568C52.6858 44.5605 48.6217 47.329 45.989 52.1871C45.289 53.4721 44.0353 53.6915 42.7816 53.0646C41.4653 52.4064 41.2459 51.2155 41.716 49.8991C43.5756 44.7172 52.0276 38.7726 57.4916 38.7517C59.0796 38.7517 59.8527 39.6084 60.1035 41.0083V41.0188Z" fill="#272727"/>
<path d="M60.1035 41.0188C60.0617 42.4396 59.3512 43.3381 58.0662 43.568C52.6858 44.5605 48.6217 47.329 45.989 52.1871C45.289 53.4721 44.0353 53.6915 42.7816 53.0646C41.4653 52.4064 41.2459 51.2155 41.716 49.8991C43.5756 44.7172 52.0276 38.7726 57.4916 38.7517C59.0796 38.7517 59.8527 39.6084 60.1035 41.0083V41.0188Z" fill="#272727"/>
</svg>
