<svg width="122" height="114" viewBox="0 0 122 114" fill="none" xmlns="http://www.w3.org/2000/svg">
<path d="M31.9222 113.025C30.2088 113.025 28.5686 112.9 27.0328 112.701C24.6717 112.398 22.7494 110.789 22.0181 108.512C21.2972 106.287 21.9031 103.925 23.5956 102.337C26.2075 99.8822 27.4716 96.6435 28.0567 94.4914C11.8841 90.7303 0.412781 76.4486 0.412781 59.5656C0.412781 47.572 6.232 36.6231 16.0735 29.9263C15.8959 28.6203 15.8018 27.2935 15.8227 25.9771C15.9899 12.8134 26.3537 1.57195 39.4339 0.391391C45.8068 -0.17277 51.9917 1.51971 57.0796 5.20765C61.4884 2.02119 66.8271 0.286926 72.312 0.286926C84.0549 0.286926 94.3038 8.18518 97.3858 19.3326C107.959 20.7639 115.972 29.7696 115.972 40.6558C115.972 42.3587 115.773 44.0407 115.387 45.681C119.242 51.5524 121.269 58.3537 121.237 65.4475C121.175 85.1618 105.075 101.199 85.3608 101.199C81.3072 101.199 77.3476 100.53 73.5657 99.2136C69.8777 101.951 65.3853 103.434 60.7676 103.434C58.49 103.434 56.2647 103.09 54.1334 102.39C47.6874 110.768 39.2145 113.036 31.9431 113.036L31.9222 113.025ZM41.8368 5.50018C41.1891 5.50018 40.5413 5.53153 39.8936 5.58376C29.4566 6.52403 21.1718 15.5088 21.0464 26.0294C21.0256 27.5756 21.1823 29.1218 21.4957 30.6262L21.8822 32.4336L20.3047 33.3948C11.1214 39.0155 5.63649 48.7943 5.63649 59.5552C5.63649 74.7666 16.5227 87.502 31.5357 89.8422L33.9699 90.2184L33.7401 92.6735C33.7087 92.9974 32.9043 100.76 27.1791 106.14C26.9597 106.339 26.9075 106.6 27.0015 106.903C27.0537 107.07 27.2313 107.457 27.7224 107.519C34.743 108.428 44.48 107.488 51.0097 97.7719L52.232 95.954L54.2275 96.8316C56.2856 97.7405 58.49 98.2002 60.7571 98.2002C64.654 98.2002 68.436 96.8002 71.3821 94.2615L72.5836 93.2272L74.0567 93.8123C77.6506 95.2436 81.4535 95.9644 85.3608 95.9644C102.213 95.9644 115.961 82.2574 116.014 65.4162C116.034 59.0015 114.102 52.8584 110.414 47.6555L109.672 46.6108L110.048 45.3885C110.508 43.8631 110.748 42.2751 110.748 40.6558C110.748 31.9008 103.905 24.7548 95.1709 24.3787L93.1128 24.2951L92.7158 22.2787C90.8039 12.5626 82.2266 5.52108 72.312 5.52108C67.3494 5.52108 62.5436 7.29714 58.7826 10.5254L57.0796 11.988L55.3767 10.5254C51.5738 7.26579 46.8307 5.52108 41.8473 5.52108L41.8368 5.50018Z" fill="#272727"/>
<path d="M66.2316 63.5983H54.7394C54.7394 61.3208 55.4289 59.0746 56.8184 56.8493C58.2079 54.6345 59.8482 52.7644 61.7287 51.2704C66.3883 47.4989 68.7285 44.0512 68.7285 40.9483C68.7285 39.0051 68.0599 37.5111 66.7331 36.4559C65.4062 35.4007 63.5361 34.8784 61.1541 34.8784C56.4946 34.8784 53.1827 37.3544 51.25 42.2856L41.4189 36.6231C43.0801 32.5695 45.7233 29.4039 49.3276 27.1264C52.932 24.8488 57.0169 23.7101 61.572 23.7101C66.5659 23.7101 70.9225 25.1832 74.6417 28.1189C78.361 31.0024 80.2207 35.0037 80.2207 40.1125C80.2207 42.3901 79.7297 44.5422 78.7685 46.569C77.7969 48.5958 76.6268 50.3197 75.2686 51.7301C73.9104 53.1405 72.5523 54.4777 71.1837 55.7314C69.8255 56.9851 68.6554 58.2702 67.6838 59.6074C66.7122 60.9447 66.2211 62.2715 66.2211 63.6088L66.2316 63.5983ZM67.5689 77.1696C67.5689 79.1128 66.8689 80.7739 65.4898 82.1634C64.1003 83.5529 62.4392 84.2425 60.4959 84.2425C58.5527 84.2425 56.8916 83.5425 55.5021 82.1634C54.1126 80.7739 53.423 79.1128 53.423 77.1696C53.423 75.2263 54.1126 73.5652 55.5021 72.1757C56.8916 70.7862 58.5527 70.0966 60.4959 70.0966C62.4392 70.0966 64.1003 70.7966 65.4898 72.1757C66.8793 73.5652 67.5689 75.2263 67.5689 77.1696Z" fill="#272727"/>
</svg>
