<svg width="107" height="104" viewBox="0 0 107 104" fill="none" xmlns="http://www.w3.org/2000/svg">
<path d="M80.6951 39.0037L57.9093 36.0053C56.687 35.8486 55.3079 35.6606 55.1512 34.0099L55.0258 32.683L59.3615 30.1443L45.4142 6.61672C44.9127 5.76003 44.2859 4.96601 43.5337 4.25559L39.7099 0.619873L47.6604 0.672129H48.0678L67.4792 0.713896C71.7208 0.713896 75.555 2.90787 77.7281 6.57492L83.2339 15.8836L90.0874 11.4225L91.2784 12.4359C92.4798 13.4598 91.9679 14.5776 91.3724 15.8731L80.716 39.0142L80.6951 39.0037ZM63.53 32.5368C67.9075 33.1114 73.8103 33.8845 78.1878 34.4591C80.1937 30.1025 82.9205 24.1997 84.9786 19.7073L81.8339 21.755L74.1028 8.69574C72.682 6.30328 70.1955 4.88244 67.4478 4.88244L49.1962 4.83018L65.0762 31.6174L63.5196 32.5368H63.53Z" fill="#272727"/>
<path d="M42.7501 38.8364L18.9091 24.5129L29.7639 6.44935C31.9265 2.85544 35.8234 0.630127 39.9502 0.630127H40.274H40.3263C44.3381 0.765943 48.0783 2.99123 50.1051 6.42844L56.1332 16.5729L42.7501 38.8468V38.8364ZM24.6447 23.0816L41.3292 33.1007L51.2752 16.552L46.5216 8.54926C45.2366 6.36575 42.7814 4.90311 40.2531 4.79864H40.0233C40.0233 4.79864 40.0129 4.79864 40.0024 4.79864C37.2965 4.79864 34.7578 6.25084 33.3578 8.59106L24.6551 23.0712L24.6447 23.0816Z" fill="#272727"/>
<path d="M16.3181 91.9199L12.0451 84.7321L2.08872 68.0684C-0.0947945 64.4327 -0.188819 60.0135 1.83798 56.2629L7.0199 46.6721L2.47528 44.217L2.66333 42.7961C2.86183 41.2708 4.05284 41.0619 5.32743 40.8425L28.061 36.9142L37.2756 58.0912C37.7562 59.1881 38.3517 60.5567 36.9204 61.5388L35.8653 62.2597L31.5087 59.8777L18.533 83.9485C18.0524 84.8157 17.7076 85.7664 17.4778 86.7798L16.3286 91.9304L16.3181 91.9199ZM11.0317 44.0916L12.6824 44.9797L5.51548 58.2479C4.1991 60.6926 4.26178 63.5552 5.67218 65.9163L15.0331 81.5874L29.8162 54.1734L31.4042 55.0405C29.6595 51.0182 27.3088 45.6169 25.5432 41.5738C21.6254 42.2529 15.545 43.2976 11.0317 44.0812V44.0916Z" fill="#272727"/>
<path d="M47.5038 97.4153H26.4313C22.2314 97.4153 18.3032 95.211 16.1824 91.6588L15.9943 91.3558C14.0511 87.856 14.0197 83.4994 15.9316 79.989L21.521 69.5939H47.5038V97.4049V97.4153ZM19.6196 89.2768L19.7449 89.4649C21.1449 91.8051 23.6941 93.2259 26.4417 93.2259H43.3352V73.7728H24.0284L19.6196 81.974C18.4077 84.1993 18.4181 87.0515 19.63 89.2768H19.6196Z" fill="#272727"/>
<path d="M67.427 103.235C66.4658 103.235 65.8599 102.461 65.233 101.647L51.0872 83.4157L65.4524 65.3417C66.1942 64.4119 67.124 63.2418 68.6493 64.0358L69.7881 64.6313L69.7359 69.6042L97.0872 69.761C98.0902 69.7819 99.0827 69.6356 100.086 69.364L105.174 67.964L100.838 75.0996L90.7979 91.711C88.6144 95.3467 84.7279 97.4675 80.4967 97.478L69.5896 97.4049L69.5583 102.597L68.1792 103.088C67.9076 103.182 67.6568 103.235 67.427 103.235ZM56.405 83.4471C58.8392 86.5813 62.6212 91.4603 65.4315 95.0751V93.1945L80.5281 93.299H80.5803C83.3384 93.299 85.8145 91.899 87.2249 89.5588L96.6693 73.9399L65.5256 73.7623L65.5465 71.9549C62.8197 75.3817 59.1526 79.9994 56.405 83.4471Z" fill="#272727"/>
<path d="M94.9455 73.8981H94.8306L83.0355 73.8459L70.8329 50.9033L95.3948 37.8441L105.289 56.4509C107.263 60.1598 107.159 64.6626 105.017 68.2043L104.839 68.5073C102.677 71.84 98.8947 73.8981 94.9455 73.8981ZM85.5533 69.6774L94.862 69.7192C97.4216 69.7296 99.9081 68.3923 101.308 66.2819L101.423 66.0834C102.833 63.7537 102.886 60.8284 101.601 58.4046L93.671 43.4961L76.4849 52.6272L85.5533 69.6774Z" fill="#272727"/>
</svg>
