<svg width="220" height="85" viewBox="0 0 220 85" fill="none" xmlns="http://www.w3.org/2000/svg">
<g id="logo_mega_france 2" clip-path="url(#clip0_21_45)">
<g id="&#208;&#161;&#208;&#187;&#208;&#190;&#208;&#185; 1">
<path id="Vector" d="M0 66.0044C0 66.0044 1.6453 62.0998 5.44395 61.8946C8.18457 61.7453 68.1053 59.94 105.351 59.9353H105.36C113.549 59.9353 120.634 60.0239 125.78 60.2339C139.431 60.4018 158.294 60.5791 177.25 60.5791C213.354 60.5791 220 68.9993 220 68.9993C220 68.9993 212.44 50.8433 131.573 50.8433H103.631C103.631 50.8433 87.3316 35.3464 84.5817 34.502C84.5817 34.502 111.116 33.779 121.244 38.052C131.373 42.3251 140.401 45.7445 140.401 45.7445C140.401 45.7445 128.278 39.4002 120.037 35.9715C111.797 32.5474 92.5192 32.5474 92.5192 32.5474C92.5192 32.5474 68.5854 32.2768 59.3894 35.0152C47.7464 38.4766 24.4046 50.3069 19.3382 53.535C14.2717 56.7631 10.021 59.2309 5.79818 59.4548C1.57539 59.6787 0.908879 61.9832 0.764391 62.3518C0.615241 62.7156 0 66.0091 0 66.0091L0 66.0044ZM28.7439 52.3128C32.3561 50.0363 59.6225 33.4524 75.5908 37.1377C83.2533 38.9057 98.103 55.6762 98.103 55.6762H33.6612C32.5985 55.6762 31.5451 55.4383 30.5849 54.9765L28.8604 54.1508C28.1147 53.7962 28.0494 52.756 28.7439 52.3175V52.3128Z" fill="#F7F7F7"/>
<path id="Vector_2" d="M93.1251 53.7497C92.2302 51.2913 89.6621 49.4486 86.5346 49.3366L81.6593 49.1594C79.1004 49.0661 76.9611 50.7921 76.8818 53.0126V53.1619L93.1251 53.7497Z" fill="#F7F7F7"/>
<g id="Group">
<path id="Vector_3" d="M24.1482 64.5583C26.7583 64.5583 28.7346 66.9188 28.2778 69.4939L26.0452 82.0146H20.8623L22.6148 72.2648L16.0522 79.2249H13.1718L9.20533 72.4888L7.49011 82.0146H2.29785L4.61433 69.018C5.07576 66.4383 7.313 64.563 9.93243 64.563L15.3764 74.0095L24.1436 64.563L24.1482 64.5583ZM49.1074 68.8221H36.4531L36.0056 71.2899H47.6626L47.038 74.9285H35.3531L34.8544 77.7462H47.7837L47.01 82.0099H28.5761L30.9392 68.6635C31.3587 66.289 33.4235 64.5583 35.8332 64.5583H49.8532L49.1074 68.8221ZM69.21 64.5583L68.3897 69.3213H56.7327L54.4768 82.0099H48.9863L51.5358 67.6559C51.8527 65.8645 53.4095 64.5583 55.2272 64.5583H69.2146H69.21ZM80 82.0099L79.203 79.1923H69.9837L68.1892 82.0099H61.8597L73.8709 64.5583H80.1212L85.924 82.0099H79.9954H80ZM72.0485 75.3764H78.1263L76.3598 69.116L72.0485 75.3764Z" fill="url(#paint0_linear_21_45)"/>
<path id="Vector_4" d="M110.52 65.6033C112.23 65.6033 113.461 66.0511 114.206 66.9515C114.952 67.8471 115.171 69.1627 114.854 70.8887L113.908 76.1741C113.591 77.9048 113.004 79.1316 112.142 79.864C111.279 80.5964 109.988 80.9603 108.282 80.9603H101.99L101.627 83.0036H96.5183L96.8818 80.9603H91.079C89.3684 80.9603 88.1379 80.5125 87.3922 79.6121C86.6464 78.7118 86.4274 77.401 86.7443 75.6749L87.6905 70.3895C88.0074 68.6588 88.5947 67.432 89.457 66.6996C90.3192 65.9672 91.6057 65.6033 93.3162 65.6033H99.6085L99.972 63.5601H105.08L104.717 65.6033H110.52ZM93.7217 76.9718H97.5809L98.8953 69.5918H94.8916C94.309 69.5918 93.8895 69.7038 93.6332 69.9277C93.3768 70.1516 93.1904 70.5621 93.0738 71.1639L92.3514 75.3251C92.2349 75.9222 92.2861 76.3467 92.5006 76.5986C92.715 76.8458 93.1251 76.9718 93.7217 76.9718ZM109.261 71.2386C109.359 70.6415 109.303 70.2169 109.089 69.965C108.874 69.7131 108.474 69.5918 107.891 69.5918H104.004L102.689 76.9718H106.693C107.29 76.9718 107.718 76.8598 107.975 76.6359C108.231 76.412 108.413 76.0015 108.511 75.3997L109.257 71.2386H109.261Z" fill="#F7F7F7"/>
<path id="Vector_5" d="M115.167 82.0099L117.767 67.4366C118.066 65.7713 119.515 64.5537 121.207 64.5537H133.507C136.681 64.5537 137.991 66.1491 137.441 69.3399L136.845 72.7314C136.579 74.3268 136.071 75.4417 135.325 76.0715C134.579 76.7012 133.405 77.0184 131.811 77.0184H121.547L120.653 82.0053H115.162L115.167 82.0099ZM122.261 73.0579H130.04C130.538 73.0579 130.893 72.9646 131.098 72.7827C131.307 72.6007 131.452 72.2509 131.536 71.7331L131.834 70.0863C131.918 69.5732 131.871 69.214 131.699 69.0134C131.526 68.8128 131.182 68.7148 130.664 68.7148H123.044L122.265 73.0532L122.261 73.0579Z" fill="#F7F7F7"/>
<path id="Vector_6" d="M151.615 82.0099L150.818 79.1923H141.599L139.804 82.0099H133.475L145.486 64.5583H151.741L157.544 82.0099H151.615ZM143.664 75.3764H149.741L147.975 69.116L143.664 75.3764Z" fill="#F7F7F7"/>
<path id="Vector_7" d="M176.938 64.5583C179.8 64.5583 181.962 67.1474 181.459 69.965L179.296 82.0099H173.806L174.994 75.3764H165.439L164.251 82.0099H158.76L161.892 64.5583C164.754 64.5583 166.917 67.1474 166.413 69.965L166.302 70.5901H175.856L176.938 64.5583Z" fill="#F7F7F7"/>
<path id="Vector_8" d="M181.902 82.0099L185.006 64.5583C187.868 64.5583 190.03 67.1474 189.527 69.965L188.226 77.247H197.791L200.047 64.5583C202.908 64.5583 205.076 67.1474 204.572 69.965L203.277 77.247H205.868L204.474 85.0001H199.352L199.897 82.0099H181.897H181.902Z" fill="#F7F7F7"/>
</g>
<path id="Vector_9" d="M177.026 43.7201L187.043 36.6527C187.22 36.5314 187.262 36.2888 187.141 36.1115C187.141 36.1115 187.141 36.1069 187.136 36.1022L179.916 26.2172C179.832 26.1099 179.725 26.0679 179.595 26.1006L167.089 29.0768C166.847 29.1374 166.586 29.0675 166.404 28.8949C160.242 23.0963 153.139 18.59 145.085 15.3665C144.969 15.3199 144.931 15.2406 144.978 15.1239L149.219 3.73214C149.289 3.53621 149.219 3.43358 149.014 3.42425C148.138 3.37294 147.388 3.07905 146.544 2.87379C143.076 2.00145 139.688 1.14776 136.378 0.312735C136.136 0.252091 135.88 0.32673 135.712 0.513328L127.728 9.4467C127.574 9.6193 127.341 9.69394 127.117 9.64263C126.479 9.48869 125.812 9.3674 125.118 9.26943C118.164 8.31778 111.289 8.09387 104.498 8.59768C104.33 8.60701 104.176 8.49972 104.134 8.33178L102 0.247426C101.944 0.0421681 101.813 -0.037136 101.613 0.0141784L90.0629 2.7525C89.8532 2.80382 89.7227 2.92977 89.6621 3.13969C88.8744 5.95266 88.1193 8.70964 87.3922 11.4106C87.2943 11.7652 87.1685 12.1151 87.0147 12.4509C86.9634 12.5536 86.8888 12.6235 86.7816 12.6608C86.0918 12.9128 71.1443 21.1697 63.7194 31.5819C65.1363 30.5323 66.5952 29.5293 68.096 28.5823C74.5421 24.5191 81.4029 21.5662 88.6833 19.7189C89.2985 19.565 89.9184 19.439 90.543 19.3457C91.382 19.2244 92.165 18.9352 93.0133 18.7813C101.697 17.1485 110.422 17.1252 119.189 18.7113C124.353 19.6443 129.205 21.0578 133.75 22.9471C144.88 27.57 154.3 34.8613 160.336 45.0076C160.41 45.1335 160.541 45.2222 160.69 45.2408L179.278 47.7459C179.394 47.7646 179.427 47.7179 179.375 47.6153C178.709 46.2625 177.912 45.0589 176.994 44.0093C176.924 43.93 176.933 43.8134 177.012 43.7434C177.017 43.7387 177.022 43.7341 177.031 43.7294L177.026 43.7201Z" fill="url(#paint1_linear_21_45)"/>
</g>
</g>
<defs>
<linearGradient id="paint0_linear_21_45" x1="-15.0035" y1="73.2865" x2="91.2002" y2="73.2865" gradientUnits="userSpaceOnUse">
<stop stop-color="#F05A30"/>
<stop offset="0.5" stop-color="#EC1C24"/>
<stop offset="1" stop-color="#D0232A"/>
</linearGradient>
<linearGradient id="paint1_linear_21_45" x1="63.7194" y1="23.8707" x2="187.21" y2="23.8707" gradientUnits="userSpaceOnUse">
<stop stop-color="#F05A30"/>
<stop offset="0.5" stop-color="#EC1C24"/>
<stop offset="1" stop-color="#D0232A"/>
</linearGradient>
<clipPath id="clip0_21_45">
<rect width="220" height="85" fill="white"/>
</clipPath>
</defs>
</svg>
