<svg width="51" height="41" viewBox="0 0 51 41" fill="none" xmlns="http://www.w3.org/2000/svg">
<path id="telegram" opacity="0.4" d="M51 2.80334C50.8789 4.0238 50.4928 5.40698 50.19 6.80496C48.3278 15.4295 46.4504 24.0467 44.5806 32.6713C44.1719 34.5574 43.7631 36.4362 43.3543 38.3224C43.3164 38.4925 43.2635 38.6626 43.218 38.8327C42.5594 41.1701 40.8486 41.5695 38.9485 40.2455C35.5496 37.8712 32.2036 35.4081 28.835 32.9893C28.4489 32.7083 28.0704 32.1905 27.6465 32.2423C27.268 32.2867 26.9425 32.797 26.6018 33.1151C24.9894 34.624 23.3846 36.1255 21.7797 37.6419C21.3482 38.0487 20.8562 38.3224 20.2657 38.4185C19.9554 38.4703 19.7585 38.4481 19.7964 38.0339C19.9705 35.8815 20.1219 33.729 20.2733 31.5766C20.3717 30.2378 20.4777 28.899 20.5534 27.5528C20.5761 27.1977 20.6745 26.9314 20.9622 26.6873C27.8357 20.6294 34.7018 14.5715 41.5602 8.50621C41.7116 8.37307 41.8554 8.24732 41.9917 8.10678C42.1355 7.95145 42.3172 7.78873 42.2036 7.55203C42.0825 7.30054 41.8251 7.30794 41.5905 7.33013C41.1666 7.36711 40.7956 7.55203 40.4398 7.77393C37.3286 9.68968 34.2248 11.598 31.1136 13.5138C25.6026 16.9089 20.084 20.2966 14.5806 23.6917C14.2551 23.8914 13.9826 23.921 13.6192 23.8026C10.0386 22.6931 6.44286 21.5984 2.85467 20.5037C2.37019 20.3557 1.90085 20.1708 1.49964 19.8528C0.878896 19.3572 0.803196 18.7507 1.32553 18.1367C1.74945 17.6338 2.3172 17.3083 2.93037 17.079C7.05603 15.5109 11.1893 13.9576 15.3225 12.3969C25.9811 8.38786 36.6321 4.38624 47.2756 0.377216C47.8206 0.170107 48.3581 -0.0296038 48.9561 0.00737976C50.2506 0.0739502 51.0152 1.05032 51 2.80334Z" fill="white"/>
</svg>
